<?plantuml 1.2026.2?><svg xmlns="http://www.w3.org/2000/svg" xmlns:xlink="http://www.w3.org/1999/xlink" contentStyleType="text/css" data-diagram-type="DESCRIPTION" height="699px" preserveAspectRatio="none" style="width:532px;height:699px;background:#FFFFFF;" version="1.1" viewBox="0 0 532 699" width="532px" zoomAndPan="magnify"><defs/><g><!--entity session_control--><g class="entity" data-qualified-name="session_control" data-source-line="4" id="ent0002"><rect fill="#F1F1F1" height="96.2717" rx="2.5" ry="2.5" style="stroke:#181818;stroke-width:0.5;" width="199.4653" x="7" y="7"/><text fill="#000000" font-family="sans-serif" font-size="14" lengthAdjust="spacing" textLength="101.7236" x="17" y="31.9659">session_control</text><text fill="#000000" font-family="sans-serif" font-size="14" lengthAdjust="spacing" textLength="147.2654" x="17" y="51.0339">0 child pkg, 7 modules</text><text fill="#000000" font-family="sans-serif" font-size="14" lengthAdjust="spacing" textLength="88.5076" x="17" y="70.1018">8 python files</text><text fill="#000000" font-family="sans-serif" font-size="14" lengthAdjust="spacing" textLength="66.8217" x="17" y="89.1697">examples:</text><text fill="#000000" font-family="sans-serif" font-size="14" lengthAdjust="spacing" text-decoration="underline" textLength="33.2079" x="87.4617" y="89.1697">main</text><text fill="#000000" font-family="sans-serif" font-size="14" lengthAdjust="spacing" textLength="75.7957" x="120.6696" y="89.1697">, actions, cli</text></g><!--entity session_control.__main__--><g class="entity" data-qualified-name="session_control.__main__" data-source-line="5" id="ent0003"><rect fill="#F1F1F1" height="58.1358" rx="2.5" ry="2.5" style="stroke:#181818;stroke-width:0.5;" width="158.6835" x="241.39" y="26.07"/><text fill="#000000" font-family="sans-serif" font-size="14" lengthAdjust="spacing" textLength="105.4756" x="251.39" y="51.0359">session_control.</text><text fill="#000000" font-family="sans-serif" font-size="14" lengthAdjust="spacing" text-decoration="underline" textLength="33.2079" x="356.8656" y="51.0359">main</text><text fill="#000000" font-family="sans-serif" font-size="14" lengthAdjust="spacing" textLength="81.8017" x="251.39" y="70.1039">1 python file</text></g><!--entity session_control.actions--><g class="entity" data-qualified-name="session_control.actions" data-source-line="6" id="ent0004"><rect fill="#F1F1F1" height="58.1358" rx="2.5" ry="2.5" style="stroke:#181818;stroke-width:0.5;" width="172.5434" x="170.46" y="399.54"/><text fill="#000000" font-family="sans-serif" font-size="14" lengthAdjust="spacing" textLength="152.5434" x="180.46" y="424.5059">session_control.actions</text><text fill="#000000" font-family="sans-serif" font-size="14" lengthAdjust="spacing" textLength="81.8017" x="180.46" y="443.5739">1 python file</text></g><!--entity session_control.cli--><g class="entity" data-qualified-name="session_control.cli" data-source-line="7" id="ent0005"><rect fill="#F1F1F1" height="58.1358" rx="2.5" ry="2.5" style="stroke:#181818;stroke-width:0.5;" width="139.4195" x="251.02" y="163.27"/><text fill="#000000" font-family="sans-serif" font-size="14" lengthAdjust="spacing" textLength="119.4195" x="261.02" y="188.2359">session_control.cli</text><text fill="#000000" font-family="sans-serif" font-size="14" lengthAdjust="spacing" textLength="81.8017" x="261.02" y="207.3039">1 python file</text></g><!--entity session_control.config--><g class="entity" data-qualified-name="session_control.config" data-source-line="8" id="ent0006"><rect fill="#F1F1F1" height="58.1358" rx="2.5" ry="2.5" style="stroke:#181818;stroke-width:0.5;" width="166.3554" x="66.55" y="635.81"/><text fill="#000000" font-family="sans-serif" font-size="14" lengthAdjust="spacing" textLength="146.3554" x="76.55" y="660.7759">session_control.config</text><text fill="#000000" font-family="sans-serif" font-size="14" lengthAdjust="spacing" textLength="81.8017" x="76.55" y="679.8439">1 python file</text></g><!--entity session_control.models--><g class="entity" data-qualified-name="session_control.models" data-source-line="9" id="ent0007"><rect fill="#F1F1F1" height="58.1358" rx="2.5" ry="2.5" style="stroke:#181818;stroke-width:0.5;" width="173.8594" x="310.8" y="635.81"/><text fill="#000000" font-family="sans-serif" font-size="14" lengthAdjust="spacing" textLength="153.8594" x="320.8" y="660.7759">session_control.models</text><text fill="#000000" font-family="sans-serif" font-size="14" lengthAdjust="spacing" textLength="81.8017" x="320.8" y="679.8439">1 python file</text></g><!--entity session_control.scanner--><g class="entity" data-qualified-name="session_control.scanner" data-source-line="10" id="ent0008"><rect fill="#F1F1F1" height="58.1358" rx="2.5" ry="2.5" style="stroke:#181818;stroke-width:0.5;" width="177.7374" x="308.86" y="517.68"/><text fill="#000000" font-family="sans-serif" font-size="14" lengthAdjust="spacing" textLength="157.7374" x="318.86" y="542.6459">session_control.scanner</text><text fill="#000000" font-family="sans-serif" font-size="14" lengthAdjust="spacing" textLength="81.8017" x="318.86" y="561.7139">1 python file</text></g><!--entity session_control.web--><g class="entity" data-qualified-name="session_control.web" data-source-line="11" id="ent0009"><rect fill="#F1F1F1" height="58.1358" rx="2.5" ry="2.5" style="stroke:#181818;stroke-width:0.5;" width="152.9855" x="309.24" y="281.41"/><text fill="#000000" font-family="sans-serif" font-size="14" lengthAdjust="spacing" textLength="132.9855" x="319.24" y="306.3759">session_control.web</text><text fill="#000000" font-family="sans-serif" font-size="14" lengthAdjust="spacing" textLength="81.8017" x="319.24" y="325.4439">1 python file</text></g><!--link session_control.__main__ to session_control.cli--><g class="link" data-entity-1="ent0003" data-entity-2="ent0005" data-link-type="dependency" data-source-line="12" id="lnk10"><path d="M320.73,84.48 C320.73,107.55 320.73,133.97 320.73,157.03" fill="none" id="session_control.__main__-to-session_control.cli" style="stroke:#181818;stroke-width:1;"/><polygon fill="#181818" points="320.73,163.03,324.73,154.03,320.73,158.03,316.73,154.03,320.73,163.03" style="stroke:#181818;stroke-width:1;"/></g><!--link session_control.actions to session_control.config--><g class="link" data-entity-1="ent0004" data-entity-2="ent0006" data-link-type="dependency" data-source-line="13" id="lnk11"><path d="M243.83,457.87 C223.26,502.9 185.7723,584.9721 165.1823,630.0621" fill="none" id="session_control.actions-to-session_control.config" style="stroke:#181818;stroke-width:1;"/><polygon fill="#181818" points="162.69,635.52,170.067,628.9947,164.7669,630.9718,162.7899,625.6716,162.69,635.52" style="stroke:#181818;stroke-width:1;"/></g><!--link session_control.actions to session_control.models--><g class="link" data-entity-1="ent0004" data-entity-2="ent0007" data-link-type="dependency" data-source-line="14" id="lnk12"><path d="M258.24,458.04 C261.03,489.08 268.99,539.24 291.73,575.81 C306.58,599.69 325.2496,616.6958 346.3896,631.9058" fill="none" id="session_control.actions-to-session_control.models" style="stroke:#181818;stroke-width:1;"/><polygon fill="#181818" points="351.26,635.41,346.2905,626.9068,347.2013,632.4898,341.6183,633.4006,351.26,635.41" style="stroke:#181818;stroke-width:1;"/></g><!--link session_control.actions to session_control.scanner--><g class="link" data-entity-1="ent0004" data-entity-2="ent0008" data-link-type="dependency" data-source-line="15" id="lnk13"><path d="M291.23,458.02 C313.07,476.02 336.5985,495.3956 358.4785,513.4156" fill="none" id="session_control.actions-to-session_control.scanner" style="stroke:#181818;stroke-width:1;"/><polygon fill="#181818" points="363.11,517.23,358.7057,508.4208,359.2505,514.0513,353.6199,514.5961,363.11,517.23" style="stroke:#181818;stroke-width:1;"/></g><!--link session_control.cli to session_control.actions--><g class="link" data-entity-1="ent0005" data-entity-2="ent0004" data-link-type="dependency" data-source-line="16" id="lnk14"><path d="M310.72,221.71 C304.84,238.88 297.45,261.28 291.73,281.41 C280.22,321.96 270.5969,363.6696 264.0969,393.2696" fill="none" id="session_control.cli-to-session_control.actions" style="stroke:#181818;stroke-width:1;"/><polygon fill="#181818" points="262.81,399.13,268.6473,391.1974,263.8824,394.2464,260.8334,389.4815,262.81,399.13" style="stroke:#181818;stroke-width:1;"/></g><!--link session_control.cli to session_control.config--><g class="link" data-entity-1="ent0005" data-entity-2="ent0006" data-link-type="dependency" data-source-line="17" id="lnk15"><path d="M278.9,221.87 C230.97,257.25 154.69,322.4 120.73,399.54 C89.15,471.3 98.62,498.88 113.73,575.81 C117.81,596.56 124.2394,613.1586 132.2194,629.9886" fill="none" id="session_control.cli-to-session_control.config" style="stroke:#181818;stroke-width:1;"/><polygon fill="#181818" points="134.79,635.41,134.5484,625.5641,132.6478,630.8921,127.3198,628.9916,134.79,635.41" style="stroke:#181818;stroke-width:1;"/></g><!--link session_control.cli to session_control.scanner--><g class="link" data-entity-1="ent0005" data-entity-2="ent0008" data-link-type="dependency" data-source-line="18" id="lnk16"><path d="M390.58,213.54 C423.77,227.04 460.35,248.51 479.73,281.41 C525.96,359.85 462.4335,462.2202 424.4335,512.5902" fill="none" id="session_control.cli-to-session_control.scanner" style="stroke:#181818;stroke-width:1;"/><polygon fill="#181818" points="420.82,517.38,429.4335,512.6043,423.8313,513.3885,423.0471,507.7862,420.82,517.38" style="stroke:#181818;stroke-width:1;"/></g><!--link session_control.cli to session_control.web--><g class="link" data-entity-1="ent0005" data-entity-2="ent0009" data-link-type="dependency" data-source-line="19" id="lnk17"><path d="M336.63,221.75 C346.71,239.75 356.7609,257.7036 366.8409,275.7236" fill="none" id="session_control.cli-to-session_control.web" style="stroke:#181818;stroke-width:1;"/><polygon fill="#181818" points="369.77,280.96,368.8672,271.1526,367.329,276.5963,361.8853,275.0581,369.77,280.96" style="stroke:#181818;stroke-width:1;"/></g><!--link session_control.scanner to session_control.config--><g class="link" data-entity-1="ent0008" data-entity-2="ent0006" data-link-type="dependency" data-source-line="20" id="lnk18"><path d="M336.75,576.31 C298.31,594.3 254.3041,614.9163 215.9141,632.8863" fill="none" id="session_control.scanner-to-session_control.config" style="stroke:#181818;stroke-width:1;"/><polygon fill="#181818" points="210.48,635.43,220.327,635.2373,215.0084,633.3103,216.9354,627.9917,210.48,635.43" style="stroke:#181818;stroke-width:1;"/></g><!--link session_control.scanner to session_control.models--><g class="link" data-entity-1="ent0008" data-entity-2="ent0007" data-link-type="dependency" data-source-line="21" id="lnk19"><path d="M397.73,576.16 C397.73,594.15 397.73,611.35 397.73,629.36" fill="none" id="session_control.scanner-to-session_control.models" style="stroke:#181818;stroke-width:1;"/><polygon fill="#181818" points="397.73,635.36,401.73,626.36,397.73,630.36,393.73,626.36,397.73,635.36" style="stroke:#181818;stroke-width:1;"/></g><!--link session_control.web to session_control.actions--><g class="link" data-entity-1="ent0009" data-entity-2="ent0004" data-link-type="dependency" data-source-line="22" id="lnk20"><path d="M354.18,339.88 C334.19,357.88 312.8785,377.0549 292.8685,395.0749" fill="none" id="session_control.web-to-session_control.actions" style="stroke:#181818;stroke-width:1;"/><polygon fill="#181818" points="288.41,399.09,297.7746,396.0397,292.1255,395.744,292.4211,390.0949,288.41,399.09" style="stroke:#181818;stroke-width:1;"/></g><!--link session_control.web to session_control.config--><g class="link" data-entity-1="ent0009" data-entity-2="ent0006" data-link-type="dependency" data-source-line="23" id="lnk21"><path d="M308.93,318.43 C255.53,327.71 187.87,349.31 152.73,399.54 C102.36,471.56 124.012,577.9836 138.952,629.9436" fill="none" id="session_control.web-to-session_control.config" style="stroke:#181818;stroke-width:1;"/><polygon fill="#181818" points="140.61,635.71,141.9673,625.9551,139.2283,630.9047,134.2788,628.1658,140.61,635.71" style="stroke:#181818;stroke-width:1;"/></g><!--link session_control.web to session_control.models--><g class="link" data-entity-1="ent0009" data-entity-2="ent0007" data-link-type="dependency" data-source-line="24" id="lnk22"><path d="M408.62,340.04 C437.41,377.98 485.29,448.32 503.73,517.68 C510.37,542.65 514.71,552.42 503.73,575.81 C492.15,600.51 474.78,617.2358 453.62,632.0058" fill="none" id="session_control.web-to-session_control.models" style="stroke:#181818;stroke-width:1;"/><polygon fill="#181818" points="448.7,635.44,458.3694,633.5687,452.8,632.5782,453.7905,627.0087,448.7,635.44" style="stroke:#181818;stroke-width:1;"/></g><!--link session_control.web to session_control.scanner--><g class="link" data-entity-1="ent0009" data-entity-2="ent0008" data-link-type="dependency" data-source-line="25" id="lnk23"><path d="M387.18,339.73 C389.49,384.76 393.663,466.3079 395.973,511.3979" fill="none" id="session_control.web-to-session_control.scanner" style="stroke:#181818;stroke-width:1;"/><polygon fill="#181818" points="396.28,517.39,399.8143,508.1971,396.0242,512.3965,391.8248,508.6064,396.28,517.39" style="stroke:#181818;stroke-width:1;"/></g><?plantuml-src bPB1RiCW38RlUGghvtJQJfjss4lq6YcYn4rHmKQ1QklRZwQacYP0S2FIvy-_xJZqGCAWiqBY0QrOXES5Y0axpnOymv6zPmEJMb1wnTIvYw8xQ42oiO4aV_0tZN071CqQk-SBTWwT2rMZPF8Bwu5UGPwLdi1UvXxUmV1qrUW6-W1xysScEAdr6t-4iU7r2UDeXA9nx46i2LmFKgiT20V_x8N6BvjbeBU_dLAQ9rlonImrkeYMR66W6bF0YXQcavghH2jPSeN3eAuQxq6MN4uA8bngP14jsRxnM6CAM9SxBEptNydbPawNvXyxR2c9gsefsHQII9lajv-jbizCaSDRuwIk41qjSKebcQM6paqBol6PH3cyCKqSx1S0?></g></svg>
