<?plantuml 1.2026.2?><svg xmlns="http://www.w3.org/2000/svg" xmlns:xlink="http://www.w3.org/1999/xlink" contentStyleType="text/css" data-diagram-type="CLASS" height="868px" preserveAspectRatio="none" style="width:1298px;height:868px;background:#FFFFFF;" version="1.1" viewBox="0 0 1298 868" width="1298px" zoomAndPan="magnify"><defs/><g><!--class session_control.config.AppConfig--><g class="entity" data-qualified-name="session_control.config.AppConfig" data-source-line="2" id="ent0002"><rect fill="#F1F1F1" height="257.7471" rx="2.5" ry="2.5" style="stroke:#181818;stroke-width:0.5;" width="240.8992" x="726.59" y="7"/><ellipse cx="808.2027" cy="23" fill="#ADD1B2" rx="11" ry="11" style="stroke:#181818;stroke-width:1;"/><path d="M808.3121,18.2813 Q807.3902,18.2813 806.6558,18.5938 Q805.9371,18.9063 805.4371,19.5 Q804.9371,20.0781 804.6558,20.9531 Q804.3902,21.8281 804.3902,22.9219 Q804.3902,24.3594 804.8277,25.4063 Q805.2808,26.4531 806.1246,27 Q806.984,27.5469 808.2965,27.5469 Q809.0777,27.5469 809.7652,27.4219 Q810.4683,27.2813 811.4683,26.9688 L811.4683,28.8438 Q810.609,29.1719 809.8433,29.2969 Q809.0933,29.4219 808.0777,29.4219 Q806.1558,29.4219 804.8433,28.625 Q803.5465,27.8125 802.8902,26.3438 Q802.234,24.8594 802.234,22.8906 Q802.234,21.4688 802.6246,20.2969 Q803.0308,19.1094 803.8121,18.2344 Q804.5933,17.3594 805.734,16.8906 Q806.8746,16.4063 808.3433,16.4063 Q809.2965,16.4063 810.1871,16.6094 Q811.0933,16.7969 812.0308,17.2656 L811.2027,19.0469 Q810.4215,18.6719 809.7652,18.4844 Q809.109,18.2813 808.3121,18.2813 Z " fill="#000000"/><text fill="#000000" font-family="sans-serif" font-size="14" lengthAdjust="spacing" textLength="69.1737" x="828.7027" y="28.432">AppConfig</text><line style="stroke:#181818;stroke-width:0.5;" x1="727.59" x2="966.4892" y1="39" y2="39"/><text fill="#000000" font-family="sans-serif" font-size="14" lengthAdjust="spacing" textLength="192.9753" x="732.59" y="57.9659">allowed_origins : tuple[str, ...]</text><text fill="#000000" font-family="sans-serif" font-size="14" lengthAdjust="spacing" textLength="118.3976" x="732.59" y="77.0339">claude_root : Path</text><text fill="#000000" font-family="sans-serif" font-size="14" lengthAdjust="spacing" textLength="114.1556" x="732.59" y="96.1018">codex_root : Path</text><text fill="#000000" font-family="sans-serif" font-size="14" lengthAdjust="spacing" textLength="132.7615" x="732.59" y="115.1697">continue_root : Path</text><text fill="#000000" font-family="sans-serif" font-size="14" lengthAdjust="spacing" textLength="119.6016" x="732.59" y="134.2376">copilot_root : Path</text><text fill="#000000" font-family="sans-serif" font-size="14" lengthAdjust="spacing" textLength="156.7574" x="732.59" y="153.3055">max_preview_chars : int</text><text fill="#000000" font-family="sans-serif" font-size="14" lengthAdjust="spacing" textLength="163.9954" x="732.59" y="172.3734">public_origin : str | None</text><text fill="#000000" font-family="sans-serif" font-size="14" lengthAdjust="spacing" textLength="97.3556" x="732.59" y="191.4414">secret_key : str</text><text fill="#000000" font-family="sans-serif" font-size="14" lengthAdjust="spacing" textLength="99.3296" x="732.59" y="210.5093">trash_dir : Path</text><line style="stroke:#181818;stroke-width:0.5;" x1="727.59" x2="966.4892" y1="218.6113" y2="218.6113"/><text fill="#000000" font-family="sans-serif" font-size="14" lengthAdjust="spacing" textLength="159.4034" x="732.59" y="237.5772">from_env() -&gt; AppConfig</text><text fill="#000000" font-family="sans-serif" font-size="14" lengthAdjust="spacing" textLength="228.8992" x="732.59" y="256.6451">provider_root(provider: str) -&gt; Path</text></g><!--class session_control.actions.DeleteResult--><g class="entity" data-qualified-name="session_control.actions.DeleteResult" data-source-line="15" id="ent0003"><rect fill="#F1F1F1" height="105.2038" rx="2.5" ry="2.5" style="stroke:#181818;stroke-width:0.5;" width="129.2915" x="1002.4" y="83.27"/><ellipse cx="1023.7404" cy="99.27" fill="#ADD1B2" rx="11" ry="11" style="stroke:#181818;stroke-width:1;"/><path d="M1023.8498,94.5512 Q1022.9279,94.5512 1022.1936,94.8637 Q1021.4748,95.1762 1020.9748,95.77 Q1020.4748,96.3481 1020.1936,97.2231 Q1019.9279,98.0981 1019.9279,99.1919 Q1019.9279,100.6294 1020.3654,101.6762 Q1020.8186,102.7231 1021.6623,103.27 Q1022.5217,103.8169 1023.8342,103.8169 Q1024.6154,103.8169 1025.3029,103.6919 Q1026.0061,103.5512 1027.0061,103.2387 L1027.0061,105.1137 Q1026.1467,105.4419 1025.3811,105.5669 Q1024.6311,105.6919 1023.6154,105.6919 Q1021.6936,105.6919 1020.3811,104.895 Q1019.0842,104.0825 1018.4279,102.6137 Q1017.7717,101.1294 1017.7717,99.1606 Q1017.7717,97.7387 1018.1623,96.5669 Q1018.5686,95.3794 1019.3498,94.5044 Q1020.1311,93.6294 1021.2717,93.1606 Q1022.4123,92.6762 1023.8811,92.6762 Q1024.8342,92.6762 1025.7248,92.8794 Q1026.6311,93.0669 1027.5686,93.5356 L1026.7404,95.3169 Q1025.9592,94.9419 1025.3029,94.7544 Q1024.6467,94.5512 1023.8498,94.5512 Z " fill="#000000"/><text fill="#000000" font-family="sans-serif" font-size="14" lengthAdjust="spacing" textLength="83.2017" x="1039.1494" y="104.702">DeleteResult</text><line style="stroke:#181818;stroke-width:0.5;" x1="1003.4" x2="1130.6915" y1="115.27" y2="115.27"/><text fill="#000000" font-family="sans-serif" font-size="14" lengthAdjust="spacing" textLength="117.2915" x="1008.4" y="134.2359">moved_count : int</text><text fill="#000000" font-family="sans-serif" font-size="14" lengthAdjust="spacing" textLength="105.9796" x="1008.4" y="153.3039">moved_to : Path</text><text fill="#000000" font-family="sans-serif" font-size="14" lengthAdjust="spacing" textLength="48.7478" x="1008.4" y="172.3718">session</text><line style="stroke:#181818;stroke-width:0.5;" x1="1003.4" x2="1130.6915" y1="180.4738" y2="180.4738"/></g><!--class session_control.actions.PruneError--><g class="entity" data-qualified-name="session_control.actions.PruneError" data-source-line="20" id="ent0004"><rect fill="#F1F1F1" height="105.2038" rx="2.5" ry="2.5" style="stroke:#181818;stroke-width:0.5;" width="218.3452" x="15.87" y="83.27"/><ellipse cx="84.2667" cy="99.27" fill="#ADD1B2" rx="11" ry="11" style="stroke:#181818;stroke-width:1;"/><path d="M84.3761,94.5512 Q83.4542,94.5512 82.7199,94.8637 Q82.0011,95.1762 81.5011,95.77 Q81.0011,96.3481 80.7199,97.2231 Q80.4542,98.0981 80.4542,99.1919 Q80.4542,100.6294 80.8917,101.6762 Q81.3449,102.7231 82.1886,103.27 Q83.048,103.8169 84.3605,103.8169 Q85.1417,103.8169 85.8292,103.6919 Q86.5324,103.5512 87.5324,103.2387 L87.5324,105.1137 Q86.673,105.4419 85.9074,105.5669 Q85.1574,105.6919 84.1417,105.6919 Q82.2199,105.6919 80.9074,104.895 Q79.6105,104.0825 78.9542,102.6137 Q78.298,101.1294 78.298,99.1606 Q78.298,97.7387 78.6886,96.5669 Q79.0949,95.3794 79.8761,94.5044 Q80.6574,93.6294 81.798,93.1606 Q82.9386,92.6762 84.4074,92.6762 Q85.3605,92.6762 86.2511,92.8794 Q87.1574,93.0669 88.0949,93.5356 L87.2667,95.3169 Q86.4855,94.9419 85.8292,94.7544 Q85.173,94.5512 84.3761,94.5512 Z " fill="#000000"/><text fill="#000000" font-family="sans-serif" font-size="14" lengthAdjust="spacing" textLength="73.0517" x="104.7667" y="104.702">PruneError</text><line style="stroke:#181818;stroke-width:0.5;" x1="16.87" x2="233.2152" y1="115.27" y2="115.27"/><text fill="#000000" font-family="sans-serif" font-size="14" lengthAdjust="spacing" textLength="87.3317" x="21.87" y="134.2359">message : str</text><text fill="#000000" font-family="sans-serif" font-size="14" lengthAdjust="spacing" textLength="84.4477" x="21.87" y="153.3039">provider : str</text><text fill="#000000" font-family="sans-serif" font-size="14" lengthAdjust="spacing" textLength="206.3452" x="21.87" y="172.3718">session : SessionRecord | None</text><line style="stroke:#181818;stroke-width:0.5;" x1="16.87" x2="233.2152" y1="180.4738" y2="180.4738"/></g><!--class session_control.actions.PruneResult--><g class="entity" data-qualified-name="session_control.actions.PruneResult" data-source-line="25" id="ent0005"><rect fill="#F1F1F1" height="181.4754" rx="2.5" ry="2.5" style="stroke:#181818;stroke-width:0.5;" width="228.1872" x="268.95" y="45.14"/><ellipse cx="338.7537" cy="61.14" fill="#ADD1B2" rx="11" ry="11" style="stroke:#181818;stroke-width:1;"/><path d="M338.8631,56.4212 Q337.9412,56.4212 337.2069,56.7337 Q336.4881,57.0462 335.9881,57.64 Q335.4881,58.2181 335.2069,59.0931 Q334.9412,59.9681 334.9412,61.0619 Q334.9412,62.4994 335.3787,63.5462 Q335.8319,64.5931 336.6756,65.14 Q337.535,65.6869 338.8475,65.6869 Q339.6287,65.6869 340.3162,65.5619 Q341.0194,65.4212 342.0194,65.1087 L342.0194,66.9837 Q341.16,67.3119 340.3944,67.4369 Q339.6444,67.5619 338.6287,67.5619 Q336.7069,67.5619 335.3944,66.765 Q334.0975,65.9525 333.4412,64.4837 Q332.785,62.9994 332.785,61.0306 Q332.785,59.6087 333.1756,58.4369 Q333.5819,57.2494 334.3631,56.3744 Q335.1444,55.4994 336.285,55.0306 Q337.4256,54.5462 338.8944,54.5462 Q339.8475,54.5462 340.7381,54.7494 Q341.6444,54.9369 342.5819,55.4056 L341.7537,57.1869 Q340.9725,56.8119 340.3162,56.6244 Q339.66,56.4212 338.8631,56.4212 Z " fill="#000000"/><text fill="#000000" font-family="sans-serif" font-size="14" lengthAdjust="spacing" textLength="80.0797" x="359.2537" y="66.572">PruneResult</text><line style="stroke:#181818;stroke-width:0.5;" x1="269.95" x2="496.1372" y1="77.14" y2="77.14"/><text fill="#000000" font-family="sans-serif" font-size="14" lengthAdjust="spacing" textLength="108.6256" x="274.95" y="96.1059">cutoff : datetime</text><text fill="#000000" font-family="sans-serif" font-size="14" lengthAdjust="spacing" textLength="205.4912" x="274.95" y="115.1739">deleted : tuple[DeleteResult, ...]</text><text fill="#000000" font-family="sans-serif" font-size="14" lengthAdjust="spacing" textLength="91.0276" x="274.95" y="134.2418">dry_run : bool</text><text fill="#000000" font-family="sans-serif" font-size="14" lengthAdjust="spacing" textLength="216.0892" x="274.95" y="153.3097">eligible : tuple[SessionRecord, ...]</text><text fill="#000000" font-family="sans-serif" font-size="14" lengthAdjust="spacing" textLength="186.1853" x="274.95" y="172.3776">errors : tuple[PruneError, ...]</text><text fill="#000000" font-family="sans-serif" font-size="14" lengthAdjust="spacing" textLength="127.2035" x="274.95" y="191.4455">scanned_count : int</text><text fill="#000000" font-family="sans-serif" font-size="14" lengthAdjust="spacing" textLength="216.1872" x="274.95" y="210.5134">skipped : tuple[PruneSkipped, ...]</text><line style="stroke:#181818;stroke-width:0.5;" x1="269.95" x2="496.1372" y1="218.6154" y2="218.6154"/></g><!--class session_control.actions.PruneSkipped--><g class="entity" data-qualified-name="session_control.actions.PruneSkipped" data-source-line="34" id="ent0006"><rect fill="#F1F1F1" height="86.1358" rx="2.5" ry="2.5" style="stroke:#181818;stroke-width:0.5;" width="123.9516" x="1167.07" y="92.81"/><ellipse cx="1182.07" cy="108.81" fill="#ADD1B2" rx="11" ry="11" style="stroke:#181818;stroke-width:1;"/><path d="M1182.1794,104.0913 Q1181.2575,104.0913 1180.5231,104.4038 Q1179.8044,104.7163 1179.3044,105.31 Q1178.8044,105.8881 1178.5231,106.7631 Q1178.2575,107.6381 1178.2575,108.7319 Q1178.2575,110.1694 1178.695,111.2163 Q1179.1481,112.2631 1179.9919,112.81 Q1180.8513,113.3569 1182.1638,113.3569 Q1182.945,113.3569 1183.6325,113.2319 Q1184.3356,113.0913 1185.3356,112.7788 L1185.3356,114.6538 Q1184.4763,114.9819 1183.7106,115.1069 Q1182.9606,115.2319 1181.945,115.2319 Q1180.0231,115.2319 1178.7106,114.435 Q1177.4138,113.6225 1176.7575,112.1538 Q1176.1013,110.6694 1176.1013,108.7006 Q1176.1013,107.2788 1176.4919,106.1069 Q1176.8981,104.9194 1177.6794,104.0444 Q1178.4606,103.1694 1179.6013,102.7006 Q1180.7419,102.2163 1182.2106,102.2163 Q1183.1638,102.2163 1184.0544,102.4194 Q1184.9606,102.6069 1185.8981,103.0756 L1185.07,104.8569 Q1184.2888,104.4819 1183.6325,104.2944 Q1182.9763,104.0913 1182.1794,104.0913 Z " fill="#000000"/><text fill="#000000" font-family="sans-serif" font-size="14" lengthAdjust="spacing" textLength="91.9516" x="1196.07" y="114.242">PruneSkipped</text><line style="stroke:#181818;stroke-width:0.5;" x1="1168.07" x2="1290.0216" y1="124.81" y2="124.81"/><text fill="#000000" font-family="sans-serif" font-size="14" lengthAdjust="spacing" textLength="73.9337" x="1173.07" y="143.7759">reason : str</text><text fill="#000000" font-family="sans-serif" font-size="14" lengthAdjust="spacing" textLength="48.7478" x="1173.07" y="162.8439">session</text><line style="stroke:#181818;stroke-width:0.5;" x1="1168.07" x2="1290.0216" y1="170.9458" y2="170.9458"/></g><!--class session_control.models.ScanError--><g class="entity" data-qualified-name="session_control.models.ScanError" data-source-line="38" id="ent0007"><rect fill="#F1F1F1" height="105.2038" rx="2.5" ry="2.5" style="stroke:#181818;stroke-width:0.5;" width="159.6155" x="532.23" y="83.27"/><ellipse cx="575.6267" cy="99.27" fill="#ADD1B2" rx="11" ry="11" style="stroke:#181818;stroke-width:1;"/><path d="M575.736,94.5512 Q574.8142,94.5512 574.0798,94.8637 Q573.361,95.1762 572.861,95.77 Q572.361,96.3481 572.0798,97.2231 Q571.8142,98.0981 571.8142,99.1919 Q571.8142,100.6294 572.2517,101.6762 Q572.7048,102.7231 573.5485,103.27 Q574.4079,103.8169 575.7204,103.8169 Q576.5017,103.8169 577.1892,103.6919 Q577.8923,103.5512 578.8923,103.2387 L578.8923,105.1137 Q578.0329,105.4419 577.2673,105.5669 Q576.5173,105.6919 575.5017,105.6919 Q573.5798,105.6919 572.2673,104.895 Q570.9704,104.0825 570.3142,102.6137 Q569.6579,101.1294 569.6579,99.1606 Q569.6579,97.7387 570.0485,96.5669 Q570.4548,95.3794 571.236,94.5044 Q572.0173,93.6294 573.1579,93.1606 Q574.2985,92.6762 575.7673,92.6762 Q576.7204,92.6762 577.611,92.8794 Q578.5173,93.0669 579.4548,93.5356 L578.6267,95.3169 Q577.8454,94.9419 577.1892,94.7544 Q576.5329,94.5512 575.736,94.5512 Z " fill="#000000"/><text fill="#000000" font-family="sans-serif" font-size="14" lengthAdjust="spacing" textLength="64.5118" x="595.937" y="104.702">ScanError</text><line style="stroke:#181818;stroke-width:0.5;" x1="533.23" x2="690.8455" y1="115.27" y2="115.27"/><text fill="#000000" font-family="sans-serif" font-size="14" lengthAdjust="spacing" textLength="87.3317" x="538.23" y="134.2359">message : str</text><text fill="#000000" font-family="sans-serif" font-size="14" lengthAdjust="spacing" textLength="84.4477" x="538.23" y="153.3039">provider : str</text><line style="stroke:#181818;stroke-width:0.5;" x1="533.23" x2="690.8455" y1="161.4058" y2="161.4058"/><text fill="#000000" font-family="sans-serif" font-size="14" lengthAdjust="spacing" textLength="147.6155" x="538.23" y="180.3718">to_dict() -&gt; dict[str, str]</text></g><!--class session_control.models.ScanReport--><g class="entity" data-qualified-name="session_control.models.ScanReport" data-source-line="43" id="ent0008"><rect fill="#F1F1F1" height="105.2038" rx="2.5" ry="2.5" style="stroke:#181818;stroke-width:0.5;" width="236.0831" x="7" y="467.69"/><ellipse cx="83.0757" cy="483.69" fill="#ADD1B2" rx="11" ry="11" style="stroke:#181818;stroke-width:1;"/><path d="M83.1851,478.9713 Q82.2632,478.9713 81.5288,479.2838 Q80.8101,479.5963 80.3101,480.19 Q79.8101,480.7681 79.5288,481.6431 Q79.2632,482.5181 79.2632,483.6119 Q79.2632,485.0494 79.7007,486.0963 Q80.1538,487.1431 80.9976,487.69 Q81.857,488.2369 83.1695,488.2369 Q83.9507,488.2369 84.6382,488.1119 Q85.3413,487.9713 86.3413,487.6588 L86.3413,489.5338 Q85.482,489.8619 84.7163,489.9869 Q83.9663,490.1119 82.9507,490.1119 Q81.0288,490.1119 79.7163,489.315 Q78.4195,488.5025 77.7632,487.0338 Q77.107,485.5494 77.107,483.5806 Q77.107,482.1588 77.4976,480.9869 Q77.9038,479.7994 78.6851,478.9244 Q79.4663,478.0494 80.607,477.5806 Q81.7476,477.0963 83.2163,477.0963 Q84.1695,477.0963 85.0601,477.2994 Q85.9663,477.4869 86.9038,477.9556 L86.0757,479.7369 Q85.2945,479.3619 84.6382,479.1744 Q83.982,478.9713 83.1851,478.9713 Z " fill="#000000"/><text fill="#000000" font-family="sans-serif" font-size="14" lengthAdjust="spacing" textLength="75.4317" x="103.5757" y="489.122">ScanReport</text><line style="stroke:#181818;stroke-width:0.5;" x1="8" x2="242.0831" y1="499.69" y2="499.69"/><text fill="#000000" font-family="sans-serif" font-size="14" lengthAdjust="spacing" textLength="177.6453" x="13" y="518.6559">errors : tuple[ScanError, ...]</text><text fill="#000000" font-family="sans-serif" font-size="14" lengthAdjust="spacing" textLength="224.0831" x="13" y="537.7239">sessions : tuple[SessionRecord, ...]</text><line style="stroke:#181818;stroke-width:0.5;" x1="8" x2="242.0831" y1="545.8258" y2="545.8258"/><text fill="#000000" font-family="sans-serif" font-size="14" lengthAdjust="spacing" textLength="154.8114" x="13" y="564.7918">to_dict() -&gt; dict[str, Any]</text></g><!--class session_control.actions.SessionActionError--><g class="entity" data-qualified-name="session_control.actions.SessionActionError" data-source-line="48" id="ent0009"><rect fill="#F1F1F1" height="48" rx="2.5" ry="2.5" style="stroke:#181818;stroke-width:0.5;" width="156.7815" x="277.65" y="496.29"/><ellipse cx="292.65" cy="512.29" fill="#ADD1B2" rx="11" ry="11" style="stroke:#181818;stroke-width:1;"/><path d="M292.7594,507.5712 Q291.8375,507.5712 291.1031,507.8837 Q290.3844,508.1962 289.8844,508.79 Q289.3844,509.3681 289.1031,510.2431 Q288.8375,511.1181 288.8375,512.2119 Q288.8375,513.6494 289.275,514.6963 Q289.7281,515.7431 290.5719,516.29 Q291.4313,516.8369 292.7438,516.8369 Q293.525,516.8369 294.2125,516.7119 Q294.9156,516.5713 295.9156,516.2588 L295.9156,518.1338 Q295.0563,518.4619 294.2906,518.5869 Q293.5406,518.7119 292.525,518.7119 Q290.6031,518.7119 289.2906,517.915 Q287.9938,517.1025 287.3375,515.6338 Q286.6813,514.1494 286.6813,512.1806 Q286.6813,510.7587 287.0719,509.5869 Q287.4781,508.3994 288.2594,507.5244 Q289.0406,506.6494 290.1813,506.1806 Q291.3219,505.6962 292.7906,505.6962 Q293.7438,505.6962 294.6344,505.8994 Q295.5406,506.0869 296.4781,506.5556 L295.65,508.3369 Q294.8688,507.9619 294.2125,507.7744 Q293.5563,507.5712 292.7594,507.5712 Z " fill="#000000"/><text fill="#FF0000" font-family="sans-serif" font-size="14" lengthAdjust="spacing" textLength="124.7815" x="306.65" y="517.722">SessionActionError</text><line style="stroke:#181818;stroke-width:0.5;" x1="278.65" x2="433.4315" y1="528.29" y2="528.29"/><line style="stroke:#181818;stroke-width:0.5;" x1="278.65" x2="433.4315" y1="536.29" y2="536.29"/></g><!--class session_control.actions.SessionActionService--><g class="entity" data-qualified-name="session_control.actions.SessionActionService" data-source-line="50" id="ent0010"><rect fill="#F1F1F1" height="124.2717" rx="2.5" ry="2.5" style="stroke:#181818;stroke-width:0.5;" width="300.7349" x="537.67" y="458.15"/><ellipse cx="614.8447" cy="474.15" fill="#ADD1B2" rx="11" ry="11" style="stroke:#181818;stroke-width:1;"/><path d="M614.9541,469.4313 Q614.0322,469.4313 613.2978,469.7438 Q612.5791,470.0563 612.0791,470.65 Q611.5791,471.2281 611.2978,472.1031 Q611.0322,472.9781 611.0322,474.0719 Q611.0322,475.5094 611.4697,476.5563 Q611.9228,477.6031 612.7666,478.15 Q613.626,478.6969 614.9385,478.6969 Q615.7197,478.6969 616.4072,478.5719 Q617.1103,478.4313 618.1103,478.1188 L618.1103,479.9938 Q617.251,480.3219 616.4853,480.4469 Q615.7353,480.5719 614.7197,480.5719 Q612.7978,480.5719 611.4853,479.775 Q610.1885,478.9625 609.5322,477.4938 Q608.876,476.0094 608.876,474.0406 Q608.876,472.6188 609.2666,471.4469 Q609.6728,470.2594 610.4541,469.3844 Q611.2353,468.5094 612.376,468.0406 Q613.5166,467.5563 614.9853,467.5563 Q615.9385,467.5563 616.8291,467.7594 Q617.7353,467.9469 618.6728,468.4156 L617.8447,470.1969 Q617.0635,469.8219 616.4072,469.6344 Q615.751,469.4313 614.9541,469.4313 Z " fill="#000000"/><text fill="#000000" font-family="sans-serif" font-size="14" lengthAdjust="spacing" textLength="137.8855" x="635.3447" y="479.582">SessionActionService</text><line style="stroke:#181818;stroke-width:0.5;" x1="538.67" x2="837.4049" y1="490.15" y2="490.15"/><text fill="#000000" font-family="sans-serif" font-size="14" lengthAdjust="spacing" textLength="40.8798" x="543.67" y="509.1159">config</text><text fill="#000000" font-family="sans-serif" font-size="14" lengthAdjust="spacing" textLength="52.2618" x="543.67" y="528.1839">scanner</text><line style="stroke:#181818;stroke-width:0.5;" x1="538.67" x2="837.4049" y1="536.2858" y2="536.2858"/><text fill="#000000" font-family="sans-serif" font-size="14" lengthAdjust="spacing" textLength="235.5491" x="543.67" y="555.2518">delete(public_id: str) -&gt; DeleteResult</text><text fill="#000000" font-family="sans-serif" font-size="14" lengthAdjust="spacing" textLength="288.7349" x="543.67" y="574.3197">prune(older_than: timedelta) -&gt; PruneResult</text></g><!--class session_control.models.SessionRecord--><g class="entity" data-qualified-name="session_control.models.SessionRecord" data-source-line="56" id="ent0011"><rect fill="#F1F1F1" height="353.0867" rx="2.5" ry="2.5" style="stroke:#181818;stroke-width:0.5;" width="208.8813" x="1043.6" y="343.75"/><ellipse cx="1095.8338" cy="359.75" fill="#ADD1B2" rx="11" ry="11" style="stroke:#181818;stroke-width:1;"/><path d="M1095.9432,355.0313 Q1095.0213,355.0313 1094.2869,355.3438 Q1093.5682,355.6563 1093.0682,356.25 Q1092.5682,356.8281 1092.2869,357.7031 Q1092.0213,358.5781 1092.0213,359.6719 Q1092.0213,361.1094 1092.4588,362.1563 Q1092.9119,363.2031 1093.7557,363.75 Q1094.6151,364.2969 1095.9276,364.2969 Q1096.7088,364.2969 1097.3963,364.1719 Q1098.0994,364.0313 1099.0994,363.7188 L1099.0994,365.5938 Q1098.2401,365.9219 1097.4744,366.0469 Q1096.7244,366.1719 1095.7088,366.1719 Q1093.7869,366.1719 1092.4744,365.375 Q1091.1776,364.5625 1090.5213,363.0938 Q1089.8651,361.6094 1089.8651,359.6406 Q1089.8651,358.2188 1090.2557,357.0469 Q1090.6619,355.8594 1091.4432,354.9844 Q1092.2244,354.1094 1093.3651,353.6406 Q1094.5057,353.1563 1095.9744,353.1563 Q1096.9276,353.1563 1097.8182,353.3594 Q1098.7244,353.5469 1099.6619,354.0156 L1098.8338,355.7969 Q1098.0526,355.4219 1097.3963,355.2344 Q1096.7401,355.0313 1095.9432,355.0313 Z " fill="#000000"/><text fill="#000000" font-family="sans-serif" font-size="14" lengthAdjust="spacing" textLength="95.9136" x="1116.3338" y="365.182">SessionRecord</text><line style="stroke:#181818;stroke-width:0.5;" x1="1044.6" x2="1251.4813" y1="375.75" y2="375.75"/><text fill="#000000" font-family="sans-serif" font-size="14" lengthAdjust="spacing" textLength="78.4417" x="1049.6" y="394.7159">active : bool</text><text fill="#000000" font-family="sans-serif" font-size="14" lengthAdjust="spacing" textLength="97.5096" x="1049.6" y="413.7839">created_at : str</text><text fill="#000000" font-family="sans-serif" font-size="14" lengthAdjust="spacing" textLength="196.8813" x="1049.6" y="432.8518">delete_targets : tuple[Path, ...]</text><text fill="#000000" font-family="sans-serif" font-size="14" lengthAdjust="spacing" textLength="130.8715" x="1049.6" y="451.9197">message_count : int</text><text fill="#000000" font-family="sans-serif" font-size="14" lengthAdjust="spacing" textLength="157.1774" x="1049.6" y="470.9876">metadata : dict[str, Any]</text><text fill="#000000" font-family="sans-serif" font-size="14" lengthAdjust="spacing" textLength="80.4857" x="1049.6" y="490.0555">preview : str</text><text fill="#000000" font-family="sans-serif" font-size="14" lengthAdjust="spacing" textLength="129.3175" x="1049.6" y="509.1234">primary_path : Path</text><text fill="#000000" font-family="sans-serif" font-size="14" lengthAdjust="spacing" textLength="84.4477" x="1049.6" y="528.1914">provider : str</text><text fill="#000000" font-family="sans-serif" font-size="14" lengthAdjust="spacing" textLength="86.8277" x="1049.6" y="547.2593">public_id : str</text><text fill="#000000" font-family="sans-serif" font-size="14" lengthAdjust="spacing" textLength="151.2974" x="1049.6" y="566.3272">resume_command : str</text><text fill="#000000" font-family="sans-serif" font-size="14" lengthAdjust="spacing" textLength="95.7596" x="1049.6" y="585.3951">session_id : str</text><text fill="#000000" font-family="sans-serif" font-size="14" lengthAdjust="spacing" textLength="94.7656" x="1049.6" y="604.463">size_bytes : int</text><text fill="#000000" font-family="sans-serif" font-size="14" lengthAdjust="spacing" textLength="53.8018" x="1049.6" y="623.5309">title : str</text><text fill="#000000" font-family="sans-serif" font-size="14" lengthAdjust="spacing" textLength="102.9836" x="1049.6" y="642.5989">updated_at : str</text><text fill="#000000" font-family="sans-serif" font-size="14" lengthAdjust="spacing" textLength="99.0916" x="1049.6" y="661.6668">workspace : str</text><line style="stroke:#181818;stroke-width:0.5;" x1="1044.6" x2="1251.4813" y1="669.7688" y2="669.7688"/><text fill="#000000" font-family="sans-serif" font-size="14" lengthAdjust="spacing" textLength="154.8114" x="1049.6" y="688.7347">to_dict() -&gt; dict[str, Any]</text></g><!--class session_control.scanner.SessionScanner--><g class="entity" data-qualified-name="session_control.scanner.SessionScanner" data-source-line="74" id="ent0012"><rect fill="#F1F1F1" height="86.1358" rx="2.5" ry="2.5" style="stroke:#181818;stroke-width:0.5;" width="345.4087" x="625.34" y="775.83"/><ellipse cx="742.3095" cy="791.83" fill="#ADD1B2" rx="11" ry="11" style="stroke:#181818;stroke-width:1;"/><path d="M742.4189,787.1113 Q741.497,787.1113 740.7627,787.4238 Q740.0439,787.7363 739.5439,788.33 Q739.0439,788.9081 738.7627,789.7831 Q738.497,790.6581 738.497,791.7519 Q738.497,793.1894 738.9345,794.2363 Q739.3877,795.2831 740.2314,795.83 Q741.0908,796.3769 742.4033,796.3769 Q743.1845,796.3769 743.872,796.2519 Q744.5752,796.1113 745.5752,795.7988 L745.5752,797.6738 Q744.7158,798.0019 743.9502,798.1269 Q743.2002,798.2519 742.1845,798.2519 Q740.2627,798.2519 738.9502,797.455 Q737.6533,796.6425 736.997,795.1738 Q736.3408,793.6894 736.3408,791.7206 Q736.3408,790.2988 736.7314,789.1269 Q737.1377,787.9394 737.9189,787.0644 Q738.7002,786.1894 739.8408,785.7206 Q740.9814,785.2363 742.4502,785.2363 Q743.4033,785.2363 744.2939,785.4394 Q745.2002,785.6269 746.1377,786.0956 L745.3095,787.8769 Q744.5283,787.5019 743.872,787.3144 Q743.2158,787.1113 742.4189,787.1113 Z " fill="#000000"/><text fill="#000000" font-family="sans-serif" font-size="14" lengthAdjust="spacing" textLength="102.9696" x="762.8095" y="797.262">SessionScanner</text><line style="stroke:#181818;stroke-width:0.5;" x1="626.34" x2="969.7487" y1="807.83" y2="807.83"/><text fill="#000000" font-family="sans-serif" font-size="14" lengthAdjust="spacing" textLength="40.8798" x="631.34" y="826.7959">config</text><line style="stroke:#181818;stroke-width:0.5;" x1="626.34" x2="969.7487" y1="834.8979" y2="834.8979"/><text fill="#000000" font-family="sans-serif" font-size="14" lengthAdjust="spacing" textLength="333.4087" x="631.34" y="853.8639">scan(providers: tuple[str, ...] | None) -&gt; ScanReport</text></g><!--link session_control.actions.DeleteResult to session_control.models.SessionRecord--><g class="link" data-entity-1="ent0003" data-entity-2="ent0011" data-link-type="dependency" data-source-line="78" id="lnk13"><path codeLine="78" d="M1078.05,188.85 C1086.57,229.08 1097.6569,281.4002 1109.5969,337.7802" fill="none" id="session_control.actions.DeleteResult-to-session_control.models.SessionRecord" style="stroke:#181818;stroke-width:1;"/><polygon fill="#181818" points="1110.84,343.65,1112.8886,334.0165,1109.8041,338.7585,1105.0622,335.674,1110.84,343.65" style="stroke:#181818;stroke-width:1;"/><text fill="#000000" font-family="sans-serif" font-size="13" lengthAdjust="spacing" textLength="45.266" x="1103.69" y="309.647">session</text></g><!--link session_control.actions.PruneSkipped to session_control.models.SessionRecord--><g class="link" data-entity-1="ent0006" data-entity-2="ent0011" data-link-type="dependency" data-source-line="79" id="lnk14"><path codeLine="79" d="M1220.06,179.26 C1211.56,219.42 1199.4436,276.6203 1186.5236,337.6003" fill="none" id="session_control.actions.PruneSkipped-to-session_control.models.SessionRecord" style="stroke:#181818;stroke-width:1;"/><polygon fill="#181818" points="1185.28,343.47,1191.0586,335.4945,1186.3164,338.5786,1183.2323,333.8364,1185.28,343.47" style="stroke:#181818;stroke-width:1;"/><text fill="#000000" font-family="sans-serif" font-size="13" lengthAdjust="spacing" textLength="45.266" x="1194.39" y="309.647">session</text></g><!--link session_control.actions.SessionActionService to session_control.scanner.SessionScanner--><g class="link" data-entity-1="ent0010" data-entity-2="ent0012" data-link-type="dependency" data-source-line="80" id="lnk15"><path codeLine="80" d="M710.83,582.75 C732.23,640.44 761.5843,719.5842 780.2843,770.0242" fill="none" id="session_control.actions.SessionActionService-to-session_control.scanner.SessionScanner" style="stroke:#181818;stroke-width:1;"/><polygon fill="#181818" points="782.37,775.65,782.992,765.8208,780.6319,770.9618,775.4909,768.6017,782.37,775.65" style="stroke:#181818;stroke-width:1;"/><text fill="#000000" font-family="sans-serif" font-size="13" lengthAdjust="spacing" textLength="48.529" x="769.54" y="741.727">scanner</text></g><!--link session_control.config.AppConfig to session_control.actions.SessionActionService--><g class="link" data-entity-1="ent0002" data-entity-2="ent0010" data-link-type="aggregation" data-source-line="81" id="lnk16"><path codeLine="81" d="M793.77,265.01 C766.74,330.02 739.7566,394.8994 718.1966,446.7594" fill="none" id="session_control.config.AppConfig-to-session_control.actions.SessionActionService" style="stroke:#181818;stroke-width:1;"/><polygon fill="none" points="713.59,457.84,719.5868,453.8352,718.1966,446.7594,712.1998,450.7642,713.59,457.84" style="stroke:#181818;stroke-width:1;"/><text fill="#000000" font-family="sans-serif" font-size="13" lengthAdjust="spacing" textLength="37.96" x="778.06" y="309.647">config</text></g><!--link session_control.config.AppConfig to session_control.scanner.SessionScanner--><g class="link" data-entity-1="ent0002" data-entity-2="ent0012" data-link-type="aggregation" data-source-line="82" id="lnk17"><path codeLine="82" d="M866.21,265.14 C879.33,379.81 889.02,551.65 856.04,696.83 C849.79,724.33 842.2584,742.3519 829.9684,764.8219" fill="none" id="session_control.config.AppConfig-to-session_control.scanner.SessionScanner" style="stroke:#181818;stroke-width:1;"/><polygon fill="none" points="824.21,775.35,830.5986,772.0054,829.9684,764.8219,823.5798,768.1665,824.21,775.35" style="stroke:#181818;stroke-width:1;"/><text fill="#000000" font-family="sans-serif" font-size="13" lengthAdjust="spacing" textLength="37.96" x="879.41" y="525.687">config</text></g><?plantuml-src hLPDRzim3BttLmWzPS3YtOEYGB7jEXJDSIWCnM8IeR9eI7JQxEE_ZvOSoOwJ9XjsAMAAuiVZUrGzaB2o1j_82fRGI2S9dR1euQOoqdjn-z0qdz6kzUPMI2yyUA_HbXLQScYAAXmLoKdyl1526eEle4fqUgEj5mj1RMFWkoVtKHH5ySm-7BrLK3f4ulD7ITlEY0hU9ZPBshPJrqORf2DhBT_Ani5EmsjPRQNhScjBVDAqAwEhlYIsSYtYb_ZMDIgugye1bI-mZoTi8YVzjbJQvU1hXtK9TZVx8ERt8hNS1NUuqmfSg6Ps-0gXWcy8yFk0w1SmGF04lZLq4bHP4N_wOkWOWArnnx1Ms5fAZKKROQwp3vSJFhhMmbVdqBsRBhl5PEmcDv0GERIL37qS_bx6NqzGeLC7MCVfhsXtu1SAg5h2zPh3Aqb0kkucfG8aAb5g257YbdBxacEnqmhHi04CJtrb85qR5PpkGTTxfcl68tduIbex6O5_qKqpA2fSN4PZVtKCHdzs6OtUCS3XG7gqn-Zdo4kkxVoGQvQMyKLokcx4X2o1YYBZkrzHm_pdUPpu2HfqT2bpz0gfZx1ETMMeOnX_OMPdAdom-q65TnKQT0i7whwFyX1G3XdlFeNJ-tUdCRt6NMG4XgTBS3jTmVNX-WkHyuUL4fdc4kLd_GBJAg-L8Vd3z9WnCpJT8gAjj0mSYuQlaunRAEjhKdf4zTtvZJGUrZnNluEiCjwXB5HLIahyYRMN9Dq6QA0iNbHfWZq9ZzSQa6JToqx-uwbsZOODFw2jhYLhlk6mUGrEo9mGJ1R7ODHTvhgMLXrBQ-ZfzGyeLtk2_AAG9fEbqpRgkFbNT2_XORqafp5PUw2NaG0dHzAJenYxJWcKdY8_UOBxBHqgoTBaAgvwZEPywogUBDAUkchF_SUu9oLsAluPC1T9WXV_vvdFyU-KlZYCwPz2doqutlu3?></g></svg>
