<?xml version="1.0" encoding="UTF-8" standalone="no"?>
<!DOCTYPE svg PUBLIC "-//W3C//DTD SVG 1.1//EN"
 "http://www.w3.org/Graphics/SVG/1.1/DTD/svg11.dtd">
<!-- Generated by graphviz version 13.1.2 (20250808.2320)
 -->
<!-- Title: G Pages: 1 -->
<svg width="293pt" height="434pt"
 viewBox="0.00 0.00 293.00 434.00" xmlns="http://www.w3.org/2000/svg" xmlns:xlink="http://www.w3.org/1999/xlink">
<g id="graph0" class="graph" transform="scale(1 1) rotate(0) translate(4 430.07)">
<title>G</title><style>.edge>path:hover{stroke-width:8}</style>
<polygon fill="white" stroke="none" points="-4,4 -4,-430.07 288.89,-430.07 288.89,4 -4,4"/>
<!-- session_control___main__ -->
<g id="node1" class="node">
<title>session_control___main__</title><style>.edge>path:hover{stroke-width:8}</style>
<ellipse fill="#ac4949" stroke="black" cx="189.7" cy="-20.51" rx="61.7" ry="20.51"/>
<text xml:space="preserve" text-anchor="middle" x="189.7" y="-21.51" font-family="Helvetica,sans-Serif" font-size="10.00" fill="#ffffff">session_control.</text>
<text xml:space="preserve" text-anchor="middle" x="189.7" y="-11.01" font-family="Helvetica,sans-Serif" font-size="10.00" fill="#ffffff">__main__</text>
</g>
<!-- session_control_actions -->
<g id="node2" class="node">
<title>session_control_actions</title><style>.edge>path:hover{stroke-width:8}</style>
<ellipse fill="#b42d2d" stroke="black" cx="151.7" cy="-251.54" rx="61.7" ry="20.51"/>
<text xml:space="preserve" text-anchor="middle" x="151.7" y="-252.54" font-family="Helvetica,sans-Serif" font-size="10.00" fill="#ffffff">session_control.</text>
<text xml:space="preserve" text-anchor="middle" x="151.7" y="-242.04" font-family="Helvetica,sans-Serif" font-size="10.00" fill="#ffffff">actions</text>
</g>
<!-- session_control_cli -->
<g id="node3" class="node">
<title>session_control_cli</title><style>.edge>path:hover{stroke-width:8}</style>
<ellipse fill="#a13535" stroke="black" cx="189.7" cy="-97.52" rx="61.7" ry="20.51"/>
<text xml:space="preserve" text-anchor="middle" x="189.7" y="-98.52" font-family="Helvetica,sans-Serif" font-size="10.00" fill="#ffffff">session_control.</text>
<text xml:space="preserve" text-anchor="middle" x="189.7" y="-88.02" font-family="Helvetica,sans-Serif" font-size="10.00" fill="#ffffff">cli</text>
</g>
<!-- session_control_actions&#45;&gt;session_control_cli -->
<g id="edge1" class="edge">
<title>session_control_actions&#45;&gt;session_control_cli</title><style>.edge>path:hover{stroke-width:8}</style>
<path fill="none" stroke="black" d="M136.53,-231.49C122.68,-211.61 106.12,-179.81 118.7,-154.02 125.03,-141.04 136.02,-130.2 147.5,-121.65"/>
<polygon fill="#b42d2d" stroke="black" points="149.24,-124.71 155.48,-116.15 145.26,-118.94 149.24,-124.71"/>
</g>
<!-- session_control_web -->
<g id="node7" class="node">
<title>session_control_web</title><style>.edge>path:hover{stroke-width:8}</style>
<ellipse fill="#a13535" stroke="black" cx="189.7" cy="-174.53" rx="61.7" ry="20.51"/>
<text xml:space="preserve" text-anchor="middle" x="189.7" y="-175.53" font-family="Helvetica,sans-Serif" font-size="10.00" fill="#ffffff">session_control.</text>
<text xml:space="preserve" text-anchor="middle" x="189.7" y="-165.03" font-family="Helvetica,sans-Serif" font-size="10.00" fill="#ffffff">web</text>
</g>
<!-- session_control_actions&#45;&gt;session_control_web -->
<g id="edge2" class="edge">
<title>session_control_actions&#45;&gt;session_control_web</title><style>.edge>path:hover{stroke-width:8}</style>
<path fill="none" stroke="black" d="M161.68,-230.83C165.65,-223 170.3,-213.81 174.67,-205.2"/>
<polygon fill="#b42d2d" stroke="black" points="177.7,-206.96 179.09,-196.46 171.45,-203.8 177.7,-206.96"/>
</g>
<!-- session_control_cli&#45;&gt;session_control___main__ -->
<g id="edge3" class="edge">
<title>session_control_cli&#45;&gt;session_control___main__</title><style>.edge>path:hover{stroke-width:8}</style>
<path fill="none" stroke="black" d="M189.7,-76.81C189.7,-69.46 189.7,-60.92 189.7,-52.79"/>
<polygon fill="#a13535" stroke="black" points="193.2,-52.86 189.7,-42.86 186.2,-52.86 193.2,-52.86"/>
</g>
<!-- session_control_config -->
<g id="node4" class="node">
<title>session_control_config</title><style>.edge>path:hover{stroke-width:8}</style>
<ellipse fill="#e72222" stroke="black" cx="202.7" cy="-405.57" rx="61.7" ry="20.51"/>
<text xml:space="preserve" text-anchor="middle" x="202.7" y="-406.57" font-family="Helvetica,sans-Serif" font-size="10.00" fill="#ffffff">session_control.</text>
<text xml:space="preserve" text-anchor="middle" x="202.7" y="-396.07" font-family="Helvetica,sans-Serif" font-size="10.00" fill="#ffffff">config</text>
</g>
<!-- session_control_config&#45;&gt;session_control_actions -->
<g id="edge4" class="edge">
<title>session_control_config&#45;&gt;session_control_actions</title><style>.edge>path:hover{stroke-width:8}</style>
<path fill="none" stroke="black" d="M163.86,-389.18C146.76,-380.21 128.38,-367.07 118.7,-349.06 107.07,-327.45 117.7,-300.95 129.9,-281.19"/>
<polygon fill="#e72222" stroke="black" points="132.68,-283.34 135.28,-273.07 126.84,-279.47 132.68,-283.34"/>
</g>
<!-- session_control_config&#45;&gt;session_control_cli -->
<g id="edge5" class="edge">
<title>session_control_config&#45;&gt;session_control_cli</title><style>.edge>path:hover{stroke-width:8}</style>
<path fill="none" stroke="black" d="M279.7,-250.54C272.91,-217.9 289.88,-207.27 279.7,-175.53"/>
</g>
<!-- session_control_scanner -->
<g id="node6" class="node">
<title>session_control_scanner</title><style>.edge>path:hover{stroke-width:8}</style>
<ellipse fill="#c82323" stroke="black" cx="189.7" cy="-328.55" rx="61.7" ry="20.51"/>
<text xml:space="preserve" text-anchor="middle" x="189.7" y="-329.55" font-family="Helvetica,sans-Serif" font-size="10.00" fill="#ffffff">session_control.</text>
<text xml:space="preserve" text-anchor="middle" x="189.7" y="-319.05" font-family="Helvetica,sans-Serif" font-size="10.00" fill="#ffffff">scanner</text>
</g>
<!-- session_control_config&#45;&gt;session_control_scanner -->
<g id="edge6" class="edge">
<title>session_control_config&#45;&gt;session_control_scanner</title><style>.edge>path:hover{stroke-width:8}</style>
<path fill="none" stroke="black" d="M199.28,-384.86C197.99,-377.42 196.49,-368.77 195.07,-360.55"/>
<polygon fill="#e72222" stroke="black" points="198.55,-360.14 193.39,-350.88 191.65,-361.33 198.55,-360.14"/>
</g>
<!-- session_control_config&#45;&gt;session_control_web -->
<g id="edge7" class="edge">
<title>session_control_config&#45;&gt;session_control_web</title><style>.edge>path:hover{stroke-width:8}</style>
<path fill="none" stroke="black" d="M227.91,-386.39C239.64,-376.63 252.73,-363.61 260.7,-349.06 281.69,-310.71 291.12,-294.74 279.7,-252.54"/>
<path fill="none" stroke="black" d="M279.7,-250.54C274.84,-227.2 255.57,-209.51 236.1,-197.19"/>
<polygon fill="#e72222" stroke="black" points="237.97,-194.23 227.58,-192.17 234.42,-200.26 237.97,-194.23"/>
</g>
<!-- session_control_models -->
<g id="node5" class="node">
<title>session_control_models</title><style>.edge>path:hover{stroke-width:8}</style>
<ellipse fill="#db2f2f" stroke="black" cx="61.7" cy="-405.57" rx="61.7" ry="20.51"/>
<text xml:space="preserve" text-anchor="middle" x="61.7" y="-406.57" font-family="Helvetica,sans-Serif" font-size="10.00" fill="#ffffff">session_control.</text>
<text xml:space="preserve" text-anchor="middle" x="61.7" y="-396.07" font-family="Helvetica,sans-Serif" font-size="10.00" fill="#ffffff">models</text>
</g>
<!-- session_control_models&#45;&gt;session_control_actions -->
<g id="edge8" class="edge">
<title>session_control_models&#45;&gt;session_control_actions</title><style>.edge>path:hover{stroke-width:8}</style>
<path fill="none" stroke="black" d="M61.7,-327.55C67.93,-304.54 87.31,-286.88 106.51,-274.49"/>
<polygon fill="#db2f2f" stroke="black" points="108.11,-277.61 114.86,-269.45 104.49,-271.62 108.11,-277.61"/>
</g>
<!-- session_control_models&#45;&gt;session_control_scanner -->
<g id="edge9" class="edge">
<title>session_control_models&#45;&gt;session_control_scanner</title><style>.edge>path:hover{stroke-width:8}</style>
<path fill="none" stroke="black" d="M91.38,-387.17C108.91,-376.9 131.31,-363.77 150.31,-352.64"/>
<polygon fill="#db2f2f" stroke="black" points="152,-355.7 158.86,-347.62 148.47,-349.66 152,-355.7"/>
</g>
<!-- session_control_models&#45;&gt;session_control_web -->
<g id="edge10" class="edge">
<title>session_control_models&#45;&gt;session_control_web</title><style>.edge>path:hover{stroke-width:8}</style>
<path fill="none" stroke="black" d="M58.91,-384.77C57.42,-369.43 56.76,-347.78 61.7,-329.55"/>
<path fill="none" stroke="black" d="M61.7,-327.55C73.12,-285.35 54.34,-265.92 80.7,-231.04 93.77,-213.74 113.75,-201.41 133.05,-192.84"/>
<polygon fill="#db2f2f" stroke="black" points="134.35,-196.09 142.25,-189.03 131.67,-189.62 134.35,-196.09"/>
</g>
<!-- session_control_scanner&#45;&gt;session_control_actions -->
<g id="edge11" class="edge">
<title>session_control_scanner&#45;&gt;session_control_actions</title><style>.edge>path:hover{stroke-width:8}</style>
<path fill="none" stroke="black" d="M179.71,-307.85C175.74,-300.01 171.09,-290.82 166.72,-282.21"/>
<polygon fill="#c82323" stroke="black" points="169.94,-280.81 162.3,-273.47 163.69,-283.97 169.94,-280.81"/>
</g>
<!-- session_control_scanner&#45;&gt;session_control_cli -->
<g id="edge12" class="edge">
<title>session_control_scanner&#45;&gt;session_control_cli</title><style>.edge>path:hover{stroke-width:8}</style>
<path fill="none" stroke="black" d="M241.7,-250.54C251,-214.35 291.12,-211.12 279.7,-175.53"/>
<path fill="none" stroke="black" d="M279.7,-173.53C272.44,-150.94 253.11,-133.36 234.21,-120.91"/>
<polygon fill="#c82323" stroke="black" points="236.07,-117.95 225.72,-115.67 232.39,-123.9 236.07,-117.95"/>
</g>
<!-- session_control_scanner&#45;&gt;session_control_web -->
<g id="edge13" class="edge">
<title>session_control_scanner&#45;&gt;session_control_web</title><style>.edge>path:hover{stroke-width:8}</style>
<path fill="none" stroke="black" d="M208.38,-308.84C220.92,-294.74 236.13,-274.18 241.7,-252.54"/>
<path fill="none" stroke="black" d="M241.7,-250.54C246.37,-232.37 235.59,-214.96 222.66,-201.49"/>
<polygon fill="#c82323" stroke="black" points="225.19,-199.07 215.54,-194.69 220.35,-204.13 225.19,-199.07"/>
</g>
<!-- session_control_web&#45;&gt;session_control_cli -->
<g id="edge14" class="edge">
<title>session_control_web&#45;&gt;session_control_cli</title><style>.edge>path:hover{stroke-width:8}</style>
<path fill="none" stroke="black" d="M189.7,-153.82C189.7,-146.47 189.7,-137.94 189.7,-129.8"/>
<polygon fill="#a13535" stroke="black" points="193.2,-129.87 189.7,-119.87 186.2,-129.87 193.2,-129.87"/>
</g>
</g>
</svg>
