<?plantuml 1.2026.2?><svg xmlns="http://www.w3.org/2000/svg" xmlns:xlink="http://www.w3.org/1999/xlink" contentStyleType="text/css" data-diagram-type="CLASS" height="907px" preserveAspectRatio="none" style="width:1474px;height:907px;background:#FFFFFF;" version="1.1" viewBox="0 0 1474 907" width="1474px" zoomAndPan="magnify"><defs/><g><!--class session_control.config.AppConfig--><g class="entity" data-qualified-name="session_control.config.AppConfig" data-source-line="2" id="ent0002"><rect fill="#F1F1F1" height="295.8829" rx="2.5" ry="2.5" style="stroke:#181818;stroke-width:0.5;" width="240.8992" x="726.59" y="7"/><ellipse cx="808.2027" cy="23" fill="#ADD1B2" rx="11" ry="11" style="stroke:#181818;stroke-width:1;"/><path d="M808.3121,18.2813 Q807.3902,18.2813 806.6558,18.5938 Q805.9371,18.9063 805.4371,19.5 Q804.9371,20.0781 804.6558,20.9531 Q804.3902,21.8281 804.3902,22.9219 Q804.3902,24.3594 804.8277,25.4063 Q805.2808,26.4531 806.1246,27 Q806.984,27.5469 808.2965,27.5469 Q809.0777,27.5469 809.7652,27.4219 Q810.4683,27.2813 811.4683,26.9688 L811.4683,28.8438 Q810.609,29.1719 809.8433,29.2969 Q809.0933,29.4219 808.0777,29.4219 Q806.1558,29.4219 804.8433,28.625 Q803.5465,27.8125 802.8902,26.3438 Q802.234,24.8594 802.234,22.8906 Q802.234,21.4688 802.6246,20.2969 Q803.0308,19.1094 803.8121,18.2344 Q804.5933,17.3594 805.734,16.8906 Q806.8746,16.4063 808.3433,16.4063 Q809.2965,16.4063 810.1871,16.6094 Q811.0933,16.7969 812.0308,17.2656 L811.2027,19.0469 Q810.4215,18.6719 809.7652,18.4844 Q809.109,18.2813 808.3121,18.2813 Z " fill="#000000"/><text fill="#000000" font-family="sans-serif" font-size="14" lengthAdjust="spacing" textLength="69.1737" x="828.7027" y="28.432">AppConfig</text><line style="stroke:#181818;stroke-width:0.5;" x1="727.59" x2="966.4892" y1="39" y2="39"/><text fill="#000000" font-family="sans-serif" font-size="14" lengthAdjust="spacing" textLength="192.9753" x="732.59" y="57.9659">allowed_origins : tuple[str, ...]</text><text fill="#000000" font-family="sans-serif" font-size="14" lengthAdjust="spacing" textLength="118.3976" x="732.59" y="77.0339">claude_root : Path</text><text fill="#000000" font-family="sans-serif" font-size="14" lengthAdjust="spacing" textLength="114.1556" x="732.59" y="96.1018">codex_root : Path</text><text fill="#000000" font-family="sans-serif" font-size="14" lengthAdjust="spacing" textLength="132.7615" x="732.59" y="115.1697">continue_root : Path</text><text fill="#000000" font-family="sans-serif" font-size="14" lengthAdjust="spacing" textLength="119.6016" x="732.59" y="134.2376">copilot_root : Path</text><text fill="#000000" font-family="sans-serif" font-size="14" lengthAdjust="spacing" textLength="156.7574" x="732.59" y="153.3055">max_preview_chars : int</text><text fill="#000000" font-family="sans-serif" font-size="14" lengthAdjust="spacing" textLength="163.9954" x="732.59" y="172.3734">public_origin : str | None</text><text fill="#000000" font-family="sans-serif" font-size="14" lengthAdjust="spacing" textLength="97.3556" x="732.59" y="191.4414">secret_key : str</text><text fill="#000000" font-family="sans-serif" font-size="14" lengthAdjust="spacing" textLength="117.7396" x="732.59" y="210.5093">tmux_session : str</text><text fill="#000000" font-family="sans-serif" font-size="14" lengthAdjust="spacing" textLength="99.3296" x="732.59" y="229.5772">trash_dir : Path</text><text fill="#000000" font-family="sans-serif" font-size="14" lengthAdjust="spacing" textLength="162.8194" x="732.59" y="248.6451">webterm_url : str | None</text><line style="stroke:#181818;stroke-width:0.5;" x1="727.59" x2="966.4892" y1="256.7471" y2="256.7471"/><text fill="#000000" font-family="sans-serif" font-size="14" lengthAdjust="spacing" textLength="159.4034" x="732.59" y="275.713">from_env() -&gt; AppConfig</text><text fill="#000000" font-family="sans-serif" font-size="14" lengthAdjust="spacing" textLength="228.8992" x="732.59" y="294.7809">provider_root(provider: str) -&gt; Path</text></g><!--class session_control.actions.DeleteResult--><g class="entity" data-qualified-name="session_control.actions.DeleteResult" data-source-line="17" id="ent0003"><rect fill="#F1F1F1" height="105.2038" rx="2.5" ry="2.5" style="stroke:#181818;stroke-width:0.5;" width="129.2915" x="1035.4" y="102.34"/><ellipse cx="1056.7404" cy="118.34" fill="#ADD1B2" rx="11" ry="11" style="stroke:#181818;stroke-width:1;"/><path d="M1056.8498,113.6213 Q1055.9279,113.6213 1055.1936,113.9338 Q1054.4748,114.2463 1053.9748,114.84 Q1053.4748,115.4181 1053.1936,116.2931 Q1052.9279,117.1681 1052.9279,118.2619 Q1052.9279,119.6994 1053.3654,120.7463 Q1053.8186,121.7931 1054.6623,122.34 Q1055.5217,122.8869 1056.8342,122.8869 Q1057.6154,122.8869 1058.3029,122.7619 Q1059.0061,122.6213 1060.0061,122.3088 L1060.0061,124.1838 Q1059.1467,124.5119 1058.3811,124.6369 Q1057.6311,124.7619 1056.6154,124.7619 Q1054.6936,124.7619 1053.3811,123.965 Q1052.0842,123.1525 1051.4279,121.6838 Q1050.7717,120.1994 1050.7717,118.2306 Q1050.7717,116.8088 1051.1623,115.6369 Q1051.5686,114.4494 1052.3498,113.5744 Q1053.1311,112.6994 1054.2717,112.2306 Q1055.4123,111.7463 1056.8811,111.7463 Q1057.8342,111.7463 1058.7248,111.9494 Q1059.6311,112.1369 1060.5686,112.6056 L1059.7404,114.3869 Q1058.9592,114.0119 1058.3029,113.8244 Q1057.6467,113.6213 1056.8498,113.6213 Z " fill="#000000"/><text fill="#000000" font-family="sans-serif" font-size="14" lengthAdjust="spacing" textLength="83.2017" x="1072.1494" y="123.772">DeleteResult</text><line style="stroke:#181818;stroke-width:0.5;" x1="1036.4" x2="1163.6915" y1="134.34" y2="134.34"/><text fill="#000000" font-family="sans-serif" font-size="14" lengthAdjust="spacing" textLength="117.2915" x="1041.4" y="153.3059">moved_count : int</text><text fill="#000000" font-family="sans-serif" font-size="14" lengthAdjust="spacing" textLength="105.9796" x="1041.4" y="172.3739">moved_to : Path</text><text fill="#000000" font-family="sans-serif" font-size="14" lengthAdjust="spacing" textLength="48.7478" x="1041.4" y="191.4418">session</text><line style="stroke:#181818;stroke-width:0.5;" x1="1036.4" x2="1163.6915" y1="199.5438" y2="199.5438"/></g><!--class session_control.actions.OpenResult--><g class="entity" data-qualified-name="session_control.actions.OpenResult" data-source-line="22" id="ent0004"><rect fill="#F1F1F1" height="67.0679" rx="2.5" ry="2.5" style="stroke:#181818;stroke-width:0.5;" width="108.7197" x="1199.68" y="121.41"/><ellipse cx="1214.68" cy="137.41" fill="#ADD1B2" rx="11" ry="11" style="stroke:#181818;stroke-width:1;"/><path d="M1214.7894,132.6912 Q1213.8675,132.6912 1213.1331,133.0037 Q1212.4144,133.3162 1211.9144,133.91 Q1211.4144,134.4881 1211.1331,135.3631 Q1210.8675,136.2381 1210.8675,137.3319 Q1210.8675,138.7694 1211.305,139.8162 Q1211.7581,140.8631 1212.6019,141.41 Q1213.4613,141.9569 1214.7738,141.9569 Q1215.555,141.9569 1216.2425,141.8319 Q1216.9456,141.6912 1217.9456,141.3787 L1217.9456,143.2537 Q1217.0863,143.5819 1216.3206,143.7069 Q1215.5706,143.8319 1214.555,143.8319 Q1212.6331,143.8319 1211.3206,143.035 Q1210.0238,142.2225 1209.3675,140.7537 Q1208.7113,139.2694 1208.7113,137.3006 Q1208.7113,135.8787 1209.1019,134.7069 Q1209.5081,133.5194 1210.2894,132.6444 Q1211.0706,131.7694 1212.2113,131.3006 Q1213.3519,130.8162 1214.8206,130.8162 Q1215.7738,130.8162 1216.6644,131.0194 Q1217.5706,131.2069 1218.5081,131.6756 L1217.68,133.4569 Q1216.8988,133.0819 1216.2425,132.8944 Q1215.5863,132.6912 1214.7894,132.6912 Z " fill="#000000"/><text fill="#000000" font-family="sans-serif" font-size="14" lengthAdjust="spacing" textLength="76.7197" x="1228.68" y="142.842">OpenResult</text><line style="stroke:#181818;stroke-width:0.5;" x1="1200.68" x2="1307.3997" y1="153.41" y2="153.41"/><text fill="#000000" font-family="sans-serif" font-size="14" lengthAdjust="spacing" textLength="48.7478" x="1205.68" y="172.3759">session</text><line style="stroke:#181818;stroke-width:0.5;" x1="1200.68" x2="1307.3997" y1="180.4779" y2="180.4779"/></g><!--class session_control.actions.PruneError--><g class="entity" data-qualified-name="session_control.actions.PruneError" data-source-line="25" id="ent0005"><rect fill="#F1F1F1" height="105.2038" rx="2.5" ry="2.5" style="stroke:#181818;stroke-width:0.5;" width="218.3452" x="15.87" y="102.34"/><ellipse cx="84.2667" cy="118.34" fill="#ADD1B2" rx="11" ry="11" style="stroke:#181818;stroke-width:1;"/><path d="M84.3761,113.6213 Q83.4542,113.6213 82.7199,113.9338 Q82.0011,114.2463 81.5011,114.84 Q81.0011,115.4181 80.7199,116.2931 Q80.4542,117.1681 80.4542,118.2619 Q80.4542,119.6994 80.8917,120.7463 Q81.3449,121.7931 82.1886,122.34 Q83.048,122.8869 84.3605,122.8869 Q85.1417,122.8869 85.8292,122.7619 Q86.5324,122.6213 87.5324,122.3088 L87.5324,124.1838 Q86.673,124.5119 85.9074,124.6369 Q85.1574,124.7619 84.1417,124.7619 Q82.2199,124.7619 80.9074,123.965 Q79.6105,123.1525 78.9542,121.6838 Q78.298,120.1994 78.298,118.2306 Q78.298,116.8088 78.6886,115.6369 Q79.0949,114.4494 79.8761,113.5744 Q80.6574,112.6994 81.798,112.2306 Q82.9386,111.7463 84.4074,111.7463 Q85.3605,111.7463 86.2511,111.9494 Q87.1574,112.1369 88.0949,112.6056 L87.2667,114.3869 Q86.4855,114.0119 85.8292,113.8244 Q85.173,113.6213 84.3761,113.6213 Z " fill="#000000"/><text fill="#000000" font-family="sans-serif" font-size="14" lengthAdjust="spacing" textLength="73.0517" x="104.7667" y="123.772">PruneError</text><line style="stroke:#181818;stroke-width:0.5;" x1="16.87" x2="233.2152" y1="134.34" y2="134.34"/><text fill="#000000" font-family="sans-serif" font-size="14" lengthAdjust="spacing" textLength="87.3317" x="21.87" y="153.3059">message : str</text><text fill="#000000" font-family="sans-serif" font-size="14" lengthAdjust="spacing" textLength="84.4477" x="21.87" y="172.3739">provider : str</text><text fill="#000000" font-family="sans-serif" font-size="14" lengthAdjust="spacing" textLength="206.3452" x="21.87" y="191.4418">session : SessionRecord | None</text><line style="stroke:#181818;stroke-width:0.5;" x1="16.87" x2="233.2152" y1="199.5438" y2="199.5438"/></g><!--class session_control.actions.PruneResult--><g class="entity" data-qualified-name="session_control.actions.PruneResult" data-source-line="30" id="ent0006"><rect fill="#F1F1F1" height="181.4754" rx="2.5" ry="2.5" style="stroke:#181818;stroke-width:0.5;" width="228.1872" x="268.95" y="64.21"/><ellipse cx="338.7537" cy="80.21" fill="#ADD1B2" rx="11" ry="11" style="stroke:#181818;stroke-width:1;"/><path d="M338.8631,75.4913 Q337.9412,75.4913 337.2069,75.8038 Q336.4881,76.1163 335.9881,76.71 Q335.4881,77.2881 335.2069,78.1631 Q334.9412,79.0381 334.9412,80.1319 Q334.9412,81.5694 335.3787,82.6163 Q335.8319,83.6631 336.6756,84.21 Q337.535,84.7569 338.8475,84.7569 Q339.6287,84.7569 340.3162,84.6319 Q341.0194,84.4913 342.0194,84.1788 L342.0194,86.0538 Q341.16,86.3819 340.3944,86.5069 Q339.6444,86.6319 338.6287,86.6319 Q336.7069,86.6319 335.3944,85.835 Q334.0975,85.0225 333.4412,83.5538 Q332.785,82.0694 332.785,80.1006 Q332.785,78.6788 333.1756,77.5069 Q333.5819,76.3194 334.3631,75.4444 Q335.1444,74.5694 336.285,74.1006 Q337.4256,73.6163 338.8944,73.6163 Q339.8475,73.6163 340.7381,73.8194 Q341.6444,74.0069 342.5819,74.4756 L341.7537,76.2569 Q340.9725,75.8819 340.3162,75.6944 Q339.66,75.4913 338.8631,75.4913 Z " fill="#000000"/><text fill="#000000" font-family="sans-serif" font-size="14" lengthAdjust="spacing" textLength="80.0797" x="359.2537" y="85.642">PruneResult</text><line style="stroke:#181818;stroke-width:0.5;" x1="269.95" x2="496.1372" y1="96.21" y2="96.21"/><text fill="#000000" font-family="sans-serif" font-size="14" lengthAdjust="spacing" textLength="108.6256" x="274.95" y="115.1759">cutoff : datetime</text><text fill="#000000" font-family="sans-serif" font-size="14" lengthAdjust="spacing" textLength="205.4912" x="274.95" y="134.2439">deleted : tuple[DeleteResult, ...]</text><text fill="#000000" font-family="sans-serif" font-size="14" lengthAdjust="spacing" textLength="91.0276" x="274.95" y="153.3118">dry_run : bool</text><text fill="#000000" font-family="sans-serif" font-size="14" lengthAdjust="spacing" textLength="216.0892" x="274.95" y="172.3797">eligible : tuple[SessionRecord, ...]</text><text fill="#000000" font-family="sans-serif" font-size="14" lengthAdjust="spacing" textLength="186.1853" x="274.95" y="191.4476">errors : tuple[PruneError, ...]</text><text fill="#000000" font-family="sans-serif" font-size="14" lengthAdjust="spacing" textLength="127.2035" x="274.95" y="210.5155">scanned_count : int</text><text fill="#000000" font-family="sans-serif" font-size="14" lengthAdjust="spacing" textLength="216.1872" x="274.95" y="229.5834">skipped : tuple[PruneSkipped, ...]</text><line style="stroke:#181818;stroke-width:0.5;" x1="269.95" x2="496.1372" y1="237.6854" y2="237.6854"/></g><!--class session_control.actions.PruneSkipped--><g class="entity" data-qualified-name="session_control.actions.PruneSkipped" data-source-line="39" id="ent0007"><rect fill="#F1F1F1" height="86.1358" rx="2.5" ry="2.5" style="stroke:#181818;stroke-width:0.5;" width="123.9516" x="1343.07" y="111.88"/><ellipse cx="1358.07" cy="127.88" fill="#ADD1B2" rx="11" ry="11" style="stroke:#181818;stroke-width:1;"/><path d="M1358.1794,123.1613 Q1357.2575,123.1613 1356.5231,123.4738 Q1355.8044,123.7863 1355.3044,124.38 Q1354.8044,124.9581 1354.5231,125.8331 Q1354.2575,126.7081 1354.2575,127.8019 Q1354.2575,129.2394 1354.695,130.2863 Q1355.1481,131.3331 1355.9919,131.88 Q1356.8513,132.4269 1358.1638,132.4269 Q1358.945,132.4269 1359.6325,132.3019 Q1360.3356,132.1613 1361.3356,131.8488 L1361.3356,133.7238 Q1360.4763,134.0519 1359.7106,134.1769 Q1358.9606,134.3019 1357.945,134.3019 Q1356.0231,134.3019 1354.7106,133.505 Q1353.4138,132.6925 1352.7575,131.2238 Q1352.1013,129.7394 1352.1013,127.7706 Q1352.1013,126.3488 1352.4919,125.1769 Q1352.8981,123.9894 1353.6794,123.1144 Q1354.4606,122.2394 1355.6013,121.7706 Q1356.7419,121.2863 1358.2106,121.2863 Q1359.1638,121.2863 1360.0544,121.4894 Q1360.9606,121.6769 1361.8981,122.1456 L1361.07,123.9269 Q1360.2888,123.5519 1359.6325,123.3644 Q1358.9763,123.1613 1358.1794,123.1613 Z " fill="#000000"/><text fill="#000000" font-family="sans-serif" font-size="14" lengthAdjust="spacing" textLength="91.9516" x="1372.07" y="133.312">PruneSkipped</text><line style="stroke:#181818;stroke-width:0.5;" x1="1344.07" x2="1466.0216" y1="143.88" y2="143.88"/><text fill="#000000" font-family="sans-serif" font-size="14" lengthAdjust="spacing" textLength="73.9337" x="1349.07" y="162.8459">reason : str</text><text fill="#000000" font-family="sans-serif" font-size="14" lengthAdjust="spacing" textLength="48.7478" x="1349.07" y="181.9139">session</text><line style="stroke:#181818;stroke-width:0.5;" x1="1344.07" x2="1466.0216" y1="190.0158" y2="190.0158"/></g><!--class session_control.models.ScanError--><g class="entity" data-qualified-name="session_control.models.ScanError" data-source-line="43" id="ent0008"><rect fill="#F1F1F1" height="105.2038" rx="2.5" ry="2.5" style="stroke:#181818;stroke-width:0.5;" width="159.6155" x="532.23" y="102.34"/><ellipse cx="575.6267" cy="118.34" fill="#ADD1B2" rx="11" ry="11" style="stroke:#181818;stroke-width:1;"/><path d="M575.736,113.6213 Q574.8142,113.6213 574.0798,113.9338 Q573.361,114.2463 572.861,114.84 Q572.361,115.4181 572.0798,116.2931 Q571.8142,117.1681 571.8142,118.2619 Q571.8142,119.6994 572.2517,120.7463 Q572.7048,121.7931 573.5485,122.34 Q574.4079,122.8869 575.7204,122.8869 Q576.5017,122.8869 577.1892,122.7619 Q577.8923,122.6213 578.8923,122.3088 L578.8923,124.1838 Q578.0329,124.5119 577.2673,124.6369 Q576.5173,124.7619 575.5017,124.7619 Q573.5798,124.7619 572.2673,123.965 Q570.9704,123.1525 570.3142,121.6838 Q569.6579,120.1994 569.6579,118.2306 Q569.6579,116.8088 570.0485,115.6369 Q570.4548,114.4494 571.236,113.5744 Q572.0173,112.6994 573.1579,112.2306 Q574.2985,111.7463 575.7673,111.7463 Q576.7204,111.7463 577.611,111.9494 Q578.5173,112.1369 579.4548,112.6056 L578.6267,114.3869 Q577.8454,114.0119 577.1892,113.8244 Q576.5329,113.6213 575.736,113.6213 Z " fill="#000000"/><text fill="#000000" font-family="sans-serif" font-size="14" lengthAdjust="spacing" textLength="64.5118" x="595.937" y="123.772">ScanError</text><line style="stroke:#181818;stroke-width:0.5;" x1="533.23" x2="690.8455" y1="134.34" y2="134.34"/><text fill="#000000" font-family="sans-serif" font-size="14" lengthAdjust="spacing" textLength="87.3317" x="538.23" y="153.3059">message : str</text><text fill="#000000" font-family="sans-serif" font-size="14" lengthAdjust="spacing" textLength="84.4477" x="538.23" y="172.3739">provider : str</text><line style="stroke:#181818;stroke-width:0.5;" x1="533.23" x2="690.8455" y1="180.4758" y2="180.4758"/><text fill="#000000" font-family="sans-serif" font-size="14" lengthAdjust="spacing" textLength="147.6155" x="538.23" y="199.4418">to_dict() -&gt; dict[str, str]</text></g><!--class session_control.models.ScanReport--><g class="entity" data-qualified-name="session_control.models.ScanReport" data-source-line="48" id="ent0009"><rect fill="#F1F1F1" height="105.2038" rx="2.5" ry="2.5" style="stroke:#181818;stroke-width:0.5;" width="236.0831" x="7" y="505.83"/><ellipse cx="83.0757" cy="521.83" fill="#ADD1B2" rx="11" ry="11" style="stroke:#181818;stroke-width:1;"/><path d="M83.1851,517.1113 Q82.2632,517.1113 81.5288,517.4238 Q80.8101,517.7363 80.3101,518.33 Q79.8101,518.9081 79.5288,519.7831 Q79.2632,520.6581 79.2632,521.7519 Q79.2632,523.1894 79.7007,524.2363 Q80.1538,525.2831 80.9976,525.83 Q81.857,526.3769 83.1695,526.3769 Q83.9507,526.3769 84.6382,526.2519 Q85.3413,526.1113 86.3413,525.7988 L86.3413,527.6738 Q85.482,528.0019 84.7163,528.1269 Q83.9663,528.2519 82.9507,528.2519 Q81.0288,528.2519 79.7163,527.455 Q78.4195,526.6425 77.7632,525.1738 Q77.107,523.6894 77.107,521.7206 Q77.107,520.2988 77.4976,519.1269 Q77.9038,517.9394 78.6851,517.0644 Q79.4663,516.1894 80.607,515.7206 Q81.7476,515.2363 83.2163,515.2363 Q84.1695,515.2363 85.0601,515.4394 Q85.9663,515.6269 86.9038,516.0956 L86.0757,517.8769 Q85.2945,517.5019 84.6382,517.3144 Q83.982,517.1113 83.1851,517.1113 Z " fill="#000000"/><text fill="#000000" font-family="sans-serif" font-size="14" lengthAdjust="spacing" textLength="75.4317" x="103.5757" y="527.262">ScanReport</text><line style="stroke:#181818;stroke-width:0.5;" x1="8" x2="242.0831" y1="537.83" y2="537.83"/><text fill="#000000" font-family="sans-serif" font-size="14" lengthAdjust="spacing" textLength="177.6453" x="13" y="556.7959">errors : tuple[ScanError, ...]</text><text fill="#000000" font-family="sans-serif" font-size="14" lengthAdjust="spacing" textLength="224.0831" x="13" y="575.8639">sessions : tuple[SessionRecord, ...]</text><line style="stroke:#181818;stroke-width:0.5;" x1="8" x2="242.0831" y1="583.9658" y2="583.9658"/><text fill="#000000" font-family="sans-serif" font-size="14" lengthAdjust="spacing" textLength="154.8114" x="13" y="602.9318">to_dict() -&gt; dict[str, Any]</text></g><!--class session_control.actions.SessionActionError--><g class="entity" data-qualified-name="session_control.actions.SessionActionError" data-source-line="53" id="ent0010"><rect fill="#F1F1F1" height="48" rx="2.5" ry="2.5" style="stroke:#181818;stroke-width:0.5;" width="156.7815" x="277.65" y="534.43"/><ellipse cx="292.65" cy="550.43" fill="#ADD1B2" rx="11" ry="11" style="stroke:#181818;stroke-width:1;"/><path d="M292.7594,545.7113 Q291.8375,545.7113 291.1031,546.0238 Q290.3844,546.3363 289.8844,546.93 Q289.3844,547.5081 289.1031,548.3831 Q288.8375,549.2581 288.8375,550.3519 Q288.8375,551.7894 289.275,552.8363 Q289.7281,553.8831 290.5719,554.43 Q291.4313,554.9769 292.7438,554.9769 Q293.525,554.9769 294.2125,554.8519 Q294.9156,554.7113 295.9156,554.3988 L295.9156,556.2738 Q295.0563,556.6019 294.2906,556.7269 Q293.5406,556.8519 292.525,556.8519 Q290.6031,556.8519 289.2906,556.055 Q287.9938,555.2425 287.3375,553.7738 Q286.6813,552.2894 286.6813,550.3206 Q286.6813,548.8988 287.0719,547.7269 Q287.4781,546.5394 288.2594,545.6644 Q289.0406,544.7894 290.1813,544.3206 Q291.3219,543.8363 292.7906,543.8363 Q293.7438,543.8363 294.6344,544.0394 Q295.5406,544.2269 296.4781,544.6956 L295.65,546.4769 Q294.8688,546.1019 294.2125,545.9144 Q293.5563,545.7113 292.7594,545.7113 Z " fill="#000000"/><text fill="#FF0000" font-family="sans-serif" font-size="14" lengthAdjust="spacing" textLength="124.7815" x="306.65" y="555.862">SessionActionError</text><line style="stroke:#181818;stroke-width:0.5;" x1="278.65" x2="433.4315" y1="566.43" y2="566.43"/><line style="stroke:#181818;stroke-width:0.5;" x1="278.65" x2="433.4315" y1="574.43" y2="574.43"/></g><!--class session_control.actions.SessionActionService--><g class="entity" data-qualified-name="session_control.actions.SessionActionService" data-source-line="55" id="ent0011"><rect fill="#F1F1F1" height="143.3396" rx="2.5" ry="2.5" style="stroke:#181818;stroke-width:0.5;" width="317.7588" x="562.16" y="486.76"/><ellipse cx="647.8467" cy="502.76" fill="#ADD1B2" rx="11" ry="11" style="stroke:#181818;stroke-width:1;"/><path d="M647.9561,498.0413 Q647.0342,498.0413 646.2998,498.3538 Q645.5811,498.6663 645.0811,499.26 Q644.5811,499.8381 644.2998,500.7131 Q644.0342,501.5881 644.0342,502.6819 Q644.0342,504.1194 644.4717,505.1663 Q644.9248,506.2131 645.7686,506.76 Q646.6279,507.3069 647.9404,507.3069 Q648.7217,507.3069 649.4092,507.1819 Q650.1123,507.0413 651.1123,506.7288 L651.1123,508.6038 Q650.2529,508.9319 649.4873,509.0569 Q648.7373,509.1819 647.7217,509.1819 Q645.7998,509.1819 644.4873,508.385 Q643.1904,507.5725 642.5342,506.1038 Q641.8779,504.6194 641.8779,502.6506 Q641.8779,501.2288 642.2686,500.0569 Q642.6748,498.8694 643.4561,497.9944 Q644.2373,497.1194 645.3779,496.6506 Q646.5186,496.1663 647.9873,496.1663 Q648.9404,496.1663 649.8311,496.3694 Q650.7373,496.5569 651.6748,497.0256 L650.8467,498.8069 Q650.0654,498.4319 649.4092,498.2444 Q648.7529,498.0413 647.9561,498.0413 Z " fill="#000000"/><text fill="#000000" font-family="sans-serif" font-size="14" lengthAdjust="spacing" textLength="137.8855" x="668.3467" y="508.192">SessionActionService</text><line style="stroke:#181818;stroke-width:0.5;" x1="563.16" x2="878.9188" y1="518.76" y2="518.76"/><text fill="#000000" font-family="sans-serif" font-size="14" lengthAdjust="spacing" textLength="40.8798" x="568.16" y="537.7259">config</text><text fill="#000000" font-family="sans-serif" font-size="14" lengthAdjust="spacing" textLength="52.2618" x="568.16" y="556.7939">scanner</text><line style="stroke:#181818;stroke-width:0.5;" x1="563.16" x2="878.9188" y1="564.8958" y2="564.8958"/><text fill="#000000" font-family="sans-serif" font-size="14" lengthAdjust="spacing" textLength="235.5491" x="568.16" y="583.8618">delete(public_id: str) -&gt; DeleteResult</text><text fill="#000000" font-family="sans-serif" font-size="14" lengthAdjust="spacing" textLength="305.7588" x="568.16" y="602.9297">open_in_webterm(public_id: str) -&gt; OpenResult</text><text fill="#000000" font-family="sans-serif" font-size="14" lengthAdjust="spacing" textLength="288.7349" x="568.16" y="621.9976">prune(older_than: timedelta) -&gt; PruneResult</text></g><!--class session_control.models.SessionRecord--><g class="entity" data-qualified-name="session_control.models.SessionRecord" data-source-line="62" id="ent0012"><rect fill="#F1F1F1" height="353.0867" rx="2.5" ry="2.5" style="stroke:#181818;stroke-width:0.5;" width="208.8813" x="1149.6" y="381.89"/><ellipse cx="1201.8338" cy="397.89" fill="#ADD1B2" rx="11" ry="11" style="stroke:#181818;stroke-width:1;"/><path d="M1201.9432,393.1713 Q1201.0213,393.1713 1200.2869,393.4838 Q1199.5682,393.7963 1199.0682,394.39 Q1198.5682,394.9681 1198.2869,395.8431 Q1198.0213,396.7181 1198.0213,397.8119 Q1198.0213,399.2494 1198.4588,400.2963 Q1198.9119,401.3431 1199.7557,401.89 Q1200.6151,402.4369 1201.9276,402.4369 Q1202.7088,402.4369 1203.3963,402.3119 Q1204.0994,402.1713 1205.0994,401.8588 L1205.0994,403.7338 Q1204.2401,404.0619 1203.4744,404.1869 Q1202.7244,404.3119 1201.7088,404.3119 Q1199.7869,404.3119 1198.4744,403.515 Q1197.1776,402.7025 1196.5213,401.2338 Q1195.8651,399.7494 1195.8651,397.7806 Q1195.8651,396.3588 1196.2557,395.1869 Q1196.6619,393.9994 1197.4432,393.1244 Q1198.2244,392.2494 1199.3651,391.7806 Q1200.5057,391.2963 1201.9744,391.2963 Q1202.9276,391.2963 1203.8182,391.4994 Q1204.7244,391.6869 1205.6619,392.1556 L1204.8338,393.9369 Q1204.0526,393.5619 1203.3963,393.3744 Q1202.7401,393.1713 1201.9432,393.1713 Z " fill="#000000"/><text fill="#000000" font-family="sans-serif" font-size="14" lengthAdjust="spacing" textLength="95.9136" x="1222.3338" y="403.322">SessionRecord</text><line style="stroke:#181818;stroke-width:0.5;" x1="1150.6" x2="1357.4813" y1="413.89" y2="413.89"/><text fill="#000000" font-family="sans-serif" font-size="14" lengthAdjust="spacing" textLength="78.4417" x="1155.6" y="432.8559">active : bool</text><text fill="#000000" font-family="sans-serif" font-size="14" lengthAdjust="spacing" textLength="97.5096" x="1155.6" y="451.9239">created_at : str</text><text fill="#000000" font-family="sans-serif" font-size="14" lengthAdjust="spacing" textLength="196.8813" x="1155.6" y="470.9918">delete_targets : tuple[Path, ...]</text><text fill="#000000" font-family="sans-serif" font-size="14" lengthAdjust="spacing" textLength="130.8715" x="1155.6" y="490.0597">message_count : int</text><text fill="#000000" font-family="sans-serif" font-size="14" lengthAdjust="spacing" textLength="157.1774" x="1155.6" y="509.1276">metadata : dict[str, Any]</text><text fill="#000000" font-family="sans-serif" font-size="14" lengthAdjust="spacing" textLength="80.4857" x="1155.6" y="528.1955">preview : str</text><text fill="#000000" font-family="sans-serif" font-size="14" lengthAdjust="spacing" textLength="129.3175" x="1155.6" y="547.2634">primary_path : Path</text><text fill="#000000" font-family="sans-serif" font-size="14" lengthAdjust="spacing" textLength="84.4477" x="1155.6" y="566.3314">provider : str</text><text fill="#000000" font-family="sans-serif" font-size="14" lengthAdjust="spacing" textLength="86.8277" x="1155.6" y="585.3993">public_id : str</text><text fill="#000000" font-family="sans-serif" font-size="14" lengthAdjust="spacing" textLength="151.2974" x="1155.6" y="604.4672">resume_command : str</text><text fill="#000000" font-family="sans-serif" font-size="14" lengthAdjust="spacing" textLength="95.7596" x="1155.6" y="623.5351">session_id : str</text><text fill="#000000" font-family="sans-serif" font-size="14" lengthAdjust="spacing" textLength="94.7656" x="1155.6" y="642.603">size_bytes : int</text><text fill="#000000" font-family="sans-serif" font-size="14" lengthAdjust="spacing" textLength="53.8018" x="1155.6" y="661.6709">title : str</text><text fill="#000000" font-family="sans-serif" font-size="14" lengthAdjust="spacing" textLength="102.9836" x="1155.6" y="680.7389">updated_at : str</text><text fill="#000000" font-family="sans-serif" font-size="14" lengthAdjust="spacing" textLength="99.0916" x="1155.6" y="699.8068">workspace : str</text><line style="stroke:#181818;stroke-width:0.5;" x1="1150.6" x2="1357.4813" y1="707.9088" y2="707.9088"/><text fill="#000000" font-family="sans-serif" font-size="14" lengthAdjust="spacing" textLength="154.8114" x="1155.6" y="726.8747">to_dict() -&gt; dict[str, Any]</text></g><!--class session_control.scanner.SessionScanner--><g class="entity" data-qualified-name="session_control.scanner.SessionScanner" data-source-line="80" id="ent0013"><rect fill="#F1F1F1" height="86.1358" rx="2.5" ry="2.5" style="stroke:#181818;stroke-width:0.5;" width="345.4087" x="662.34" y="813.97"/><ellipse cx="779.3095" cy="829.97" fill="#ADD1B2" rx="11" ry="11" style="stroke:#181818;stroke-width:1;"/><path d="M779.4189,825.2513 Q778.497,825.2513 777.7627,825.5638 Q777.0439,825.8763 776.5439,826.47 Q776.0439,827.0481 775.7627,827.9231 Q775.497,828.7981 775.497,829.8919 Q775.497,831.3294 775.9345,832.3763 Q776.3877,833.4231 777.2314,833.97 Q778.0908,834.5169 779.4033,834.5169 Q780.1845,834.5169 780.872,834.3919 Q781.5752,834.2513 782.5752,833.9388 L782.5752,835.8138 Q781.7158,836.1419 780.9502,836.2669 Q780.2002,836.3919 779.1845,836.3919 Q777.2627,836.3919 775.9502,835.595 Q774.6533,834.7825 773.997,833.3138 Q773.3408,831.8294 773.3408,829.8606 Q773.3408,828.4388 773.7314,827.2669 Q774.1377,826.0794 774.9189,825.2044 Q775.7002,824.3294 776.8408,823.8606 Q777.9814,823.3763 779.4502,823.3763 Q780.4033,823.3763 781.2939,823.5794 Q782.2002,823.7669 783.1377,824.2356 L782.3095,826.0169 Q781.5283,825.6419 780.872,825.4544 Q780.2158,825.2513 779.4189,825.2513 Z " fill="#000000"/><text fill="#000000" font-family="sans-serif" font-size="14" lengthAdjust="spacing" textLength="102.9696" x="799.8095" y="835.402">SessionScanner</text><line style="stroke:#181818;stroke-width:0.5;" x1="663.34" x2="1006.7487" y1="845.97" y2="845.97"/><text fill="#000000" font-family="sans-serif" font-size="14" lengthAdjust="spacing" textLength="40.8798" x="668.34" y="864.9359">config</text><line style="stroke:#181818;stroke-width:0.5;" x1="663.34" x2="1006.7487" y1="873.0379" y2="873.0379"/><text fill="#000000" font-family="sans-serif" font-size="14" lengthAdjust="spacing" textLength="333.4087" x="668.34" y="892.0039">scan(providers: tuple[str, ...] | None) -&gt; ScanReport</text></g><!--link session_control.actions.DeleteResult to session_control.models.SessionRecord--><g class="link" data-entity-1="ent0003" data-entity-2="ent0012" data-link-type="dependency" data-source-line="84" id="lnk14"><path codeLine="84" d="M1120.02,208.02 C1137.03,252.37 1160.3314,313.1279 1184.5014,376.1479" fill="none" id="session_control.actions.DeleteResult-to-session_control.models.SessionRecord" style="stroke:#181818;stroke-width:1;"/><polygon fill="#181818" points="1186.65,381.75,1187.1619,371.9145,1184.8595,377.0816,1179.6924,374.7792,1186.65,381.75" style="stroke:#181818;stroke-width:1;"/><text fill="#000000" font-family="sans-serif" font-size="13" lengthAdjust="spacing" textLength="45.266" x="1173.42" y="347.787">session</text></g><!--link session_control.actions.OpenResult to session_control.models.SessionRecord--><g class="link" data-entity-1="ent0004" data-entity-2="ent0012" data-link-type="dependency" data-source-line="85" id="lnk15"><path codeLine="85" d="M1254.04,188.8 C1254.04,231.31 1254.04,302.59 1254.04,375.45" fill="none" id="session_control.actions.OpenResult-to-session_control.models.SessionRecord" style="stroke:#181818;stroke-width:1;"/><polygon fill="#181818" points="1254.04,381.45,1258.04,372.45,1254.04,376.45,1250.04,372.45,1254.04,381.45" style="stroke:#181818;stroke-width:1;"/><text fill="#000000" font-family="sans-serif" font-size="13" lengthAdjust="spacing" textLength="45.266" x="1255.04" y="347.787">session</text></g><!--link session_control.actions.PruneSkipped to session_control.models.SessionRecord--><g class="link" data-entity-1="ent0007" data-entity-2="ent0012" data-link-type="dependency" data-source-line="86" id="lnk16"><path codeLine="86" d="M1389.17,198.15 C1372.66,242.04 1347.8219,308.074 1322.3219,375.884" fill="none" id="session_control.actions.PruneSkipped-to-session_control.models.SessionRecord" style="stroke:#181818;stroke-width:1;"/><polygon fill="#181818" points="1320.21,381.5,1327.1219,374.4839,1321.9699,376.82,1319.6338,371.668,1320.21,381.5" style="stroke:#181818;stroke-width:1;"/><text fill="#000000" font-family="sans-serif" font-size="13" lengthAdjust="spacing" textLength="45.266" x="1335.07" y="347.787">session</text></g><!--link session_control.actions.SessionActionService to session_control.scanner.SessionScanner--><g class="link" data-entity-1="ent0011" data-entity-2="ent0013" data-link-type="dependency" data-source-line="87" id="lnk17"><path codeLine="87" d="M748.35,630.48 C770.28,687.55 798.2083,760.1991 816.5483,807.9391" fill="none" id="session_control.actions.SessionActionService-to-session_control.scanner.SessionScanner" style="stroke:#181818;stroke-width:1;"/><polygon fill="#181818" points="818.7,813.54,819.2064,803.7042,816.9069,808.8726,811.7385,806.5731,818.7,813.54" style="stroke:#181818;stroke-width:1;"/><text fill="#000000" font-family="sans-serif" font-size="13" lengthAdjust="spacing" textLength="48.529" x="805.47" y="779.867">scanner</text></g><!--link session_control.config.AppConfig to session_control.actions.SessionActionService--><g class="link" data-entity-1="ent0002" data-entity-2="ent0011" data-link-type="aggregation" data-source-line="88" id="lnk18"><path codeLine="88" d="M800.84,303.16 C781.21,365.72 762.8229,424.3005 746.9129,475.0005" fill="none" id="session_control.config.AppConfig-to-session_control.actions.SessionActionService" style="stroke:#181818;stroke-width:1;"/><polygon fill="none" points="743.32,486.45,748.933,481.9229,746.9129,475.0005,741.3,479.5276,743.32,486.45" style="stroke:#181818;stroke-width:1;"/><text fill="#000000" font-family="sans-serif" font-size="13" lengthAdjust="spacing" textLength="37.96" x="788.82" y="347.787">config</text></g><!--link session_control.config.AppConfig to session_control.scanner.SessionScanner--><g class="link" data-entity-1="ent0002" data-entity-2="ent0013" data-link-type="aggregation" data-source-line="89" id="lnk19"><path codeLine="89" d="M885.49,303.35 C910.2,421.56 931.79,590.91 897.04,734.97 C890.34,762.75 882.2017,780.9694 869.0617,803.3694" fill="none" id="session_control.config.AppConfig-to-session_control.scanner.SessionScanner" style="stroke:#181818;stroke-width:1;"/><polygon fill="none" points="862.99,813.72,869.476,810.5686,869.0617,803.3694,862.5757,806.5208,862.99,813.72" style="stroke:#181818;stroke-width:1;"/><text fill="#000000" font-family="sans-serif" font-size="13" lengthAdjust="spacing" textLength="37.96" x="916.17" y="563.827">config</text></g><?plantuml-src hLPDRnen4BtdLrWvKQdGEueYHMslRHIELMIPtG6iUEtLU1P2F_vxP-t5tcKXq2eN1EFnVBmtyum74bPLu6jLm09gXOeS2kiit1H6UIzk7-hwixChlRuLoWiFtcjdPU4ieJEp8XpDafFuTIE4CiRje9GEzLfRB-Q2cjh03q_uKSncisVsuUXD2HAT8pv_LBHfZQw4rv7DahRDsBNMnj6HjLAliaROQjZ9OgEmpQqjyKdTB8qkkfBOohM8t-9RswZWhWe4aY-mZoTiegfvbLstsOZARsIfCMVSmP80AzcWEOwwGbT9iDl91p6z5mcYjXXqMrq2XkedXr_XUl0DiVyS6FW21WYUm3U6JfAW2kAVVjPt34HKRiiq5Awnb828DdAvXIvSJlYz1dj5kkmMaet2F69ZuIkYmpV3PBTOCxkfDIJC3-WaGoPb4RyzGU6mFE0-J7z56ps_K43Ha5kjE7of24XNBPLbGBPCazn7EerqYNl9iTXfwPnX0nWUjgM1T6rGSBe7RUzvIp8UoSCNojeHa_v5rtMlg71n4OtTrI4OtTbbD3h700U2yhqL6B6yuDhEarpnHXi_IqxNKKoEbwoWk3ZjjoWT_F4yJFm4jKEwb3bwXTH7MAUwCjGnZB_0sPaA7-o-L-5TuOp3EK9vtqLv22Y7Z7UVmkdzcsoCht4N6O7-wG9mgmkuFbnt8SxyGPdYf64Q-KcdcxhCwjGVVdPqB0DIMzafuQaRMIa2spnX4sTQ_QEDiWmqBncd8nN5B-_ZgDN8mfjy3pGXl4RSxHRoLhBKysANKb6QjzYh98LheDuciZucnhkXFLPJ8CKweLgv64v1ssXuY7fZhYl56b5psAo-e-5F-2KBCXXLcxcgb2sFLx7lwVLFaCizGNxuI9F9gzRKvN7pEuSluVs_j7x3uUw0NiI1EKb9DqopeUjuuD8Bw4V_53fL3vNaLUOghde3ftphgZcP9rsxuh5xnwW3jNt7k2SN_LJyCnJDan1S_CCtdRf_qvlvWVp_2dssu7ZxBm00?></g></svg>
