<?plantuml 1.2026.2?><svg xmlns="http://www.w3.org/2000/svg" xmlns:xlink="http://www.w3.org/1999/xlink" contentStyleType="text/css" data-diagram-type="DESCRIPTION" height="818px" preserveAspectRatio="none" style="width:1448px;height:818px;background:#FFFFFF;" version="1.1" viewBox="0 0 1448 818" width="1448px" zoomAndPan="magnify"><defs/><g><!--entity connection_monitor_tui--><g class="entity" data-qualified-name="connection_monitor_tui" data-source-line="4" id="ent0002"><rect fill="#F1F1F1" height="58.1358" rx="2.5" ry="2.5" style="stroke:#181818;stroke-width:0.5;" width="175.7774" x="957.54" y="26.07"/><text fill="#000000" font-family="sans-serif" font-size="14" lengthAdjust="spacing" textLength="155.7774" x="967.54" y="51.0359">connection_monitor_tui</text><text fill="#000000" font-family="sans-serif" font-size="14" lengthAdjust="spacing" textLength="81.8017" x="967.54" y="70.1039">1 python file</text></g><!--entity session_control--><g class="entity" data-qualified-name="session_control" data-source-line="5" id="ent0003"><rect fill="#F1F1F1" height="96.2717" rx="2.5" ry="2.5" style="stroke:#181818;stroke-width:0.5;" width="275.107" x="1167.87" y="7"/><text fill="#000000" font-family="sans-serif" font-size="14" lengthAdjust="spacing" textLength="101.7236" x="1177.87" y="31.9659">session_control</text><text fill="#000000" font-family="sans-serif" font-size="14" lengthAdjust="spacing" textLength="155.2734" x="1177.87" y="51.0339">0 child pkg, 11 modules</text><text fill="#000000" font-family="sans-serif" font-size="14" lengthAdjust="spacing" textLength="96.5156" x="1177.87" y="70.1018">12 python files</text><text fill="#000000" font-family="sans-serif" font-size="14" lengthAdjust="spacing" textLength="66.8217" x="1177.87" y="89.1697">examples:</text><text fill="#000000" font-family="sans-serif" font-size="14" lengthAdjust="spacing" text-decoration="underline" textLength="33.2079" x="1248.3317" y="89.1697">main</text><text fill="#000000" font-family="sans-serif" font-size="14" lengthAdjust="spacing" textLength="151.4374" x="1281.5396" y="89.1697">, actions, claude_status</text></g><!--entity session_control.__main__--><g class="entity" data-qualified-name="session_control.__main__" data-source-line="6" id="ent0004"><rect fill="#F1F1F1" height="58.1358" rx="2.5" ry="2.5" style="stroke:#181818;stroke-width:0.5;" width="158.6835" x="365.08" y="26.07"/><text fill="#000000" font-family="sans-serif" font-size="14" lengthAdjust="spacing" textLength="105.4756" x="375.08" y="51.0359">session_control.</text><text fill="#000000" font-family="sans-serif" font-size="14" lengthAdjust="spacing" text-decoration="underline" textLength="33.2079" x="480.5556" y="51.0359">main</text><text fill="#000000" font-family="sans-serif" font-size="14" lengthAdjust="spacing" textLength="81.8017" x="375.08" y="70.1039">1 python file</text></g><!--entity session_control.actions--><g class="entity" data-qualified-name="session_control.actions" data-source-line="7" id="ent0005"><rect fill="#F1F1F1" height="58.1358" rx="2.5" ry="2.5" style="stroke:#181818;stroke-width:0.5;" width="172.5434" x="103.15" y="399.55"/><text fill="#000000" font-family="sans-serif" font-size="14" lengthAdjust="spacing" textLength="152.5434" x="113.15" y="424.5159">session_control.actions</text><text fill="#000000" font-family="sans-serif" font-size="14" lengthAdjust="spacing" textLength="81.8017" x="113.15" y="443.5839">1 python file</text></g><!--entity session_control.claude_status--><g class="entity" data-qualified-name="session_control.claude_status" data-source-line="8" id="ent0006"><rect fill="#F1F1F1" height="58.1358" rx="2.5" ry="2.5" style="stroke:#181818;stroke-width:0.5;" width="215.0613" x="452.89" y="399.55"/><text fill="#000000" font-family="sans-serif" font-size="14" lengthAdjust="spacing" textLength="195.0613" x="462.89" y="424.5159">session_control.claude_status</text><text fill="#000000" font-family="sans-serif" font-size="14" lengthAdjust="spacing" textLength="81.8017" x="462.89" y="443.5839">1 python file</text></g><!--entity session_control.cli--><g class="entity" data-qualified-name="session_control.cli" data-source-line="9" id="ent0007"><rect fill="#F1F1F1" height="58.1358" rx="2.5" ry="2.5" style="stroke:#181818;stroke-width:0.5;" width="139.4195" x="374.71" y="163.28"/><text fill="#000000" font-family="sans-serif" font-size="14" lengthAdjust="spacing" textLength="119.4195" x="384.71" y="188.2459">session_control.cli</text><text fill="#000000" font-family="sans-serif" font-size="14" lengthAdjust="spacing" textLength="81.8017" x="384.71" y="207.3139">1 python file</text></g><!--entity session_control.codex_permissions--><g class="entity" data-qualified-name="session_control.codex_permissions" data-source-line="10" id="ent0008"><rect fill="#F1F1F1" height="58.1358" rx="2.5" ry="2.5" style="stroke:#181818;stroke-width:0.5;" width="250.6351" x="515.11" y="753.95"/><text fill="#000000" font-family="sans-serif" font-size="14" lengthAdjust="spacing" textLength="230.6351" x="525.11" y="778.9159">session_control.codex_permissions</text><text fill="#000000" font-family="sans-serif" font-size="14" lengthAdjust="spacing" textLength="81.8017" x="525.11" y="797.9839">1 python file</text></g><!--entity session_control.config--><g class="entity" data-qualified-name="session_control.config" data-source-line="11" id="ent0009"><rect fill="#F1F1F1" height="58.1358" rx="2.5" ry="2.5" style="stroke:#181818;stroke-width:0.5;" width="166.3554" x="638.25" y="635.82"/><text fill="#000000" font-family="sans-serif" font-size="14" lengthAdjust="spacing" textLength="146.3554" x="648.25" y="660.7859">session_control.config</text><text fill="#000000" font-family="sans-serif" font-size="14" lengthAdjust="spacing" textLength="81.8017" x="648.25" y="679.8539">1 python file</text></g><!--entity session_control.connection_monitor--><g class="entity" data-qualified-name="session_control.connection_monitor" data-source-line="12" id="ent0010"><rect fill="#F1F1F1" height="58.1358" rx="2.5" ry="2.5" style="stroke:#181818;stroke-width:0.5;" width="257.7191" x="916.56" y="399.55"/><text fill="#000000" font-family="sans-serif" font-size="14" lengthAdjust="spacing" textLength="237.7191" x="926.56" y="424.5159">session_control.connection_monitor</text><text fill="#000000" font-family="sans-serif" font-size="14" lengthAdjust="spacing" textLength="81.8017" x="926.56" y="443.5839">1 python file</text></g><!--entity session_control.dedup--><g class="entity" data-qualified-name="session_control.dedup" data-source-line="13" id="ent0011"><rect fill="#F1F1F1" height="58.1358" rx="2.5" ry="2.5" style="stroke:#181818;stroke-width:0.5;" width="167.8534" x="36.5" y="517.68"/><text fill="#000000" font-family="sans-serif" font-size="14" lengthAdjust="spacing" textLength="147.8534" x="46.5" y="542.6459">session_control.dedup</text><text fill="#000000" font-family="sans-serif" font-size="14" lengthAdjust="spacing" textLength="81.8017" x="46.5" y="561.7139">1 python file</text></g><!--entity session_control.models--><g class="entity" data-qualified-name="session_control.models" data-source-line="14" id="ent0012"><rect fill="#F1F1F1" height="58.1358" rx="2.5" ry="2.5" style="stroke:#181818;stroke-width:0.5;" width="173.8594" x="241.49" y="635.82"/><text fill="#000000" font-family="sans-serif" font-size="14" lengthAdjust="spacing" textLength="153.8594" x="251.49" y="660.7859">session_control.models</text><text fill="#000000" font-family="sans-serif" font-size="14" lengthAdjust="spacing" textLength="81.8017" x="251.49" y="679.8539">1 python file</text></g><!--entity session_control.scanner--><g class="entity" data-qualified-name="session_control.scanner" data-source-line="15" id="ent0013"><rect fill="#F1F1F1" height="58.1358" rx="2.5" ry="2.5" style="stroke:#181818;stroke-width:0.5;" width="177.7374" x="459.56" y="517.68"/><text fill="#000000" font-family="sans-serif" font-size="14" lengthAdjust="spacing" textLength="157.7374" x="469.56" y="542.6459">session_control.scanner</text><text fill="#000000" font-family="sans-serif" font-size="14" lengthAdjust="spacing" textLength="81.8017" x="469.56" y="561.7139">1 python file</text></g><!--entity session_control.web--><g class="entity" data-qualified-name="session_control.web" data-source-line="16" id="ent0014"><rect fill="#F1F1F1" height="58.1358" rx="2.5" ry="2.5" style="stroke:#181818;stroke-width:0.5;" width="152.9855" x="563.93" y="281.41"/><text fill="#000000" font-family="sans-serif" font-size="14" lengthAdjust="spacing" textLength="132.9855" x="573.93" y="306.3759">session_control.web</text><text fill="#000000" font-family="sans-serif" font-size="14" lengthAdjust="spacing" textLength="81.8017" x="573.93" y="325.4439">1 python file</text></g><!--link connection_monitor_tui to session_control.cli--><g class="link" data-entity-1="ent0002" data-entity-2="ent0007" data-link-type="dependency" data-source-line="17" id="lnk15"><path d="M957.07,76.02 C836.83,103.06 629.9737,149.6031 520.1837,174.3031" fill="none" id="connection_monitor_tui-to-session_control.cli" style="stroke:#181818;stroke-width:1;"/><polygon fill="#181818" points="514.33,175.62,523.9885,177.5471,519.2081,174.5226,522.2326,169.7421,514.33,175.62" style="stroke:#181818;stroke-width:1;"/></g><!--link connection_monitor_tui to session_control.config--><g class="link" data-entity-1="ent0002" data-entity-2="ent0009" data-link-type="dependency" data-source-line="18" id="lnk16"><path d="M1107.64,84.68 C1182.55,123.83 1298.42,201.79 1298.42,309.48 C1298.42,309.48 1298.42,309.48 1298.42,429.61 C1298.42,518.66 1239.24,532.52 1161.42,575.82 C1048.59,638.6 903.4007,656.6654 810.8407,661.8354" fill="none" id="connection_monitor_tui-to-session_control.config" style="stroke:#181818;stroke-width:1;"/><polygon fill="#181818" points="804.85,662.17,814.0591,665.6619,809.8422,661.8912,813.6129,657.6743,804.85,662.17" style="stroke:#181818;stroke-width:1;"/></g><!--link connection_monitor_tui to session_control.connection_monitor--><g class="link" data-entity-1="ent0002" data-entity-2="ent0010" data-link-type="dependency" data-source-line="19" id="lnk17"><path d="M1045.42,84.67 C1045.42,153.9 1045.42,324.17 1045.42,393.24" fill="none" id="connection_monitor_tui-to-session_control.connection_monitor" style="stroke:#181818;stroke-width:1;"/><polygon fill="#181818" points="1045.42,399.24,1049.42,390.24,1045.42,394.24,1041.42,390.24,1045.42,399.24" style="stroke:#181818;stroke-width:1;"/></g><!--link session_control.__main__ to session_control.cli--><g class="link" data-entity-1="ent0004" data-entity-2="ent0007" data-link-type="dependency" data-source-line="20" id="lnk18"><path d="M444.42,84.48 C444.42,107.56 444.42,133.97 444.42,157.04" fill="none" id="session_control.__main__-to-session_control.cli" style="stroke:#181818;stroke-width:1;"/><polygon fill="#181818" points="444.42,163.04,448.42,154.04,444.42,158.04,440.42,154.04,444.42,163.04" style="stroke:#181818;stroke-width:1;"/></g><!--link session_control.actions to session_control.codex_permissions--><g class="link" data-entity-1="ent0005" data-entity-2="ent0008" data-link-type="dependency" data-source-line="21" id="lnk19"><path d="M102.92,453.32 C70.94,466.73 37.99,487.15 19.42,517.68 C6,539.76 6.5,553.45 19.42,575.82 C72.04,666.87 126.22,656.35 224.42,693.95 C318.53,729.99 424.6236,751.6932 508.7036,764.9832" fill="none" id="session_control.actions-to-session_control.codex_permissions" style="stroke:#181818;stroke-width:1;"/><polygon fill="#181818" points="514.63,765.92,506.3649,760.5639,509.6913,765.1394,505.1159,768.4658,514.63,765.92" style="stroke:#181818;stroke-width:1;"/></g><!--link session_control.actions to session_control.config--><g class="link" data-entity-1="ent0005" data-entity-2="ent0009" data-link-type="dependency" data-source-line="22" id="lnk20"><path d="M231.79,457.96 C280.85,489.86 364.89,541.67 442.42,575.82 C506.11,603.87 575.7461,625.5242 632.1061,641.0742" fill="none" id="session_control.actions-to-session_control.config" style="stroke:#181818;stroke-width:1;"/><polygon fill="#181818" points="637.89,642.67,630.278,636.4204,633.0701,641.3402,628.1503,644.1322,637.89,642.67" style="stroke:#181818;stroke-width:1;"/></g><!--link session_control.actions to session_control.dedup--><g class="link" data-entity-1="ent0005" data-entity-2="ent0011" data-link-type="dependency" data-source-line="23" id="lnk21"><path d="M172.54,458.02 C161.85,476.02 151.1334,494.051 140.4334,512.071" fill="none" id="session_control.actions-to-session_control.dedup" style="stroke:#181818;stroke-width:1;"/><polygon fill="#181818" points="137.37,517.23,145.4044,511.5337,139.9228,512.9308,138.5257,507.4492,137.37,517.23" style="stroke:#181818;stroke-width:1;"/></g><!--link session_control.actions to session_control.models--><g class="link" data-entity-1="ent0005" data-entity-2="ent0012" data-link-type="dependency" data-source-line="24" id="lnk22"><path d="M206.19,457.87 C232.91,502.9 281.7778,585.2803 308.5378,630.3703" fill="none" id="session_control.actions-to-session_control.models" style="stroke:#181818;stroke-width:1;"/><polygon fill="#181818" points="311.6,635.53,310.4465,625.7489,309.0482,631.2302,303.5669,629.8319,311.6,635.53" style="stroke:#181818;stroke-width:1;"/></g><!--link session_control.actions to session_control.scanner--><g class="link" data-entity-1="ent0005" data-entity-2="ent0013" data-link-type="dependency" data-source-line="25" id="lnk23"><path d="M275.87,457.58 C331.68,475.63 398.3711,497.2136 454.5211,515.3736" fill="none" id="session_control.actions-to-session_control.scanner" style="stroke:#181818;stroke-width:1;"/><polygon fill="#181818" points="460.23,517.22,452.8976,510.6446,455.4726,515.6814,450.4358,518.2564,460.23,517.22" style="stroke:#181818;stroke-width:1;"/></g><!--link session_control.cli to session_control.actions--><g class="link" data-entity-1="ent0007" data-entity-2="ent0005" data-link-type="dependency" data-source-line="26" id="lnk24"><path d="M388.66,221.76 C361.09,237.29 328.27,258.09 302.42,281.41 C263,316.97 230.5782,362.6218 210.2782,394.0118" fill="none" id="session_control.cli-to-session_control.actions" style="stroke:#181818;stroke-width:1;"/><polygon fill="#181818" points="207.02,399.05,215.2662,393.6648,209.7352,394.8515,208.5485,389.3205,207.02,399.05" style="stroke:#181818;stroke-width:1;"/></g><!--link session_control.cli to session_control.config--><g class="link" data-entity-1="ent0007" data-entity-2="ent0009" data-link-type="dependency" data-source-line="27" id="lnk25"><path d="M514.39,201.94 C683.82,224.33 1108.35,290.43 1191.42,399.55 C1302.58,545.54 973.9317,621.9046 811.0017,650.1646" fill="none" id="session_control.cli-to-session_control.config" style="stroke:#181818;stroke-width:1;"/><polygon fill="#181818" points="805.09,651.19,814.6412,653.5931,810.0164,650.3355,813.274,645.7108,805.09,651.19" style="stroke:#181818;stroke-width:1;"/></g><!--link session_control.cli to session_control.dedup--><g class="link" data-entity-1="ent0007" data-entity-2="ent0011" data-link-type="dependency" data-source-line="28" id="lnk26"><path d="M374.38,208.94 C286.74,232.81 141.36,287.89 85.42,399.55 C66.31,437.7 83.0135,481.4945 99.6535,511.9545" fill="none" id="session_control.cli-to-session_control.dedup" style="stroke:#181818;stroke-width:1;"/><polygon fill="#181818" points="102.53,517.22,101.7256,507.404,100.1329,512.8321,94.7049,511.2394,102.53,517.22" style="stroke:#181818;stroke-width:1;"/></g><!--link session_control.cli to session_control.scanner--><g class="link" data-entity-1="ent0007" data-entity-2="ent0013" data-link-type="dependency" data-source-line="29" id="lnk27"><path d="M435.19,221.76 C420.51,272.22 397.23,379.5 435.42,457.68 C447.65,482.71 465.7942,499.4074 487.9742,513.9674" fill="none" id="session_control.cli-to-session_control.scanner" style="stroke:#181818;stroke-width:1;"/><polygon fill="#181818" points="492.99,517.26,487.6613,508.9772,488.8101,514.5161,483.2712,515.6649,492.99,517.26" style="stroke:#181818;stroke-width:1;"/></g><!--link session_control.cli to session_control.web--><g class="link" data-entity-1="ent0007" data-entity-2="ent0014" data-link-type="dependency" data-source-line="30" id="lnk28"><path d="M492.62,221.9 C523,239.9 556.9083,259.9911 587.2483,277.9711" fill="none" id="session_control.cli-to-session_control.web" style="stroke:#181818;stroke-width:1;"/><polygon fill="#181818" points="592.41,281.03,586.7067,273.0005,588.1086,278.4809,582.6282,279.8828,592.41,281.03" style="stroke:#181818;stroke-width:1;"/></g><!--link session_control.config to session_control.codex_permissions--><g class="link" data-entity-1="ent0009" data-entity-2="ent0008" data-link-type="dependency" data-source-line="31" id="lnk29"><path d="M701.61,694.3 C689.06,712.29 676.314,730.5699 663.744,748.5799" fill="none" id="session_control.config-to-session_control.codex_permissions" style="stroke:#181818;stroke-width:1;"/><polygon fill="#181818" points="660.31,753.5,668.7411,748.4091,663.1717,749.3999,662.1809,743.8305,660.31,753.5" style="stroke:#181818;stroke-width:1;"/></g><!--link session_control.dedup to session_control.models--><g class="link" data-entity-1="ent0011" data-entity-2="ent0012" data-link-type="dependency" data-source-line="32" id="lnk30"><path d="M171.57,576.31 C203.81,594.31 240.0314,614.5348 272.2314,632.5148" fill="none" id="session_control.dedup-to-session_control.models" style="stroke:#181818;stroke-width:1;"/><polygon fill="#181818" points="277.47,635.44,271.5622,627.5598,273.1045,633.0024,267.6619,634.5447,277.47,635.44" style="stroke:#181818;stroke-width:1;"/></g><!--link session_control.scanner to session_control.codex_permissions--><g class="link" data-entity-1="ent0013" data-entity-2="ent0008" data-link-type="dependency" data-source-line="33" id="lnk31"><path d="M559.52,576.01 C577.2,621.04 609.3865,702.9853 627.0965,748.0753" fill="none" id="session_control.scanner-to-session_control.codex_permissions" style="stroke:#181818;stroke-width:1;"/><polygon fill="#181818" points="629.29,753.66,629.7229,743.8207,627.4621,749.0061,622.2766,746.7453,629.29,753.66" style="stroke:#181818;stroke-width:1;"/></g><!--link session_control.scanner to session_control.config--><g class="link" data-entity-1="ent0013" data-entity-2="ent0009" data-link-type="dependency" data-source-line="34" id="lnk32"><path d="M590.74,576.16 C617.55,594.16 647.1186,614.0055 673.9586,632.0255" fill="none" id="session_control.scanner-to-session_control.config" style="stroke:#181818;stroke-width:1;"/><polygon fill="#181818" points="678.94,635.37,673.6975,627.0324,674.7888,632.583,669.2382,633.6743,678.94,635.37" style="stroke:#181818;stroke-width:1;"/></g><!--link session_control.scanner to session_control.models--><g class="link" data-entity-1="ent0013" data-entity-2="ent0012" data-link-type="dependency" data-source-line="35" id="lnk33"><path d="M494.32,576.31 C460.23,594.31 421.6761,614.659 387.6161,632.639" fill="none" id="session_control.scanner-to-session_control.models" style="stroke:#181818;stroke-width:1;"/><polygon fill="#181818" points="382.31,635.44,392.1364,634.7758,386.7317,633.1058,388.4017,627.7011,382.31,635.44" style="stroke:#181818;stroke-width:1;"/></g><!--link session_control.web to session_control.actions--><g class="link" data-entity-1="ent0014" data-entity-2="ent0005" data-link-type="dependency" data-source-line="36" id="lnk34"><path d="M563.66,331.25 C483.83,351.8 364.9004,382.4234 281.6604,403.8634" fill="none" id="session_control.web-to-session_control.actions" style="stroke:#181818;stroke-width:1;"/><polygon fill="#181818" points="275.85,405.36,285.5633,406.9887,280.692,404.1129,283.5678,399.2416,275.85,405.36" style="stroke:#181818;stroke-width:1;"/></g><!--link session_control.web to session_control.claude_status--><g class="link" data-entity-1="ent0014" data-entity-2="ent0006" data-link-type="dependency" data-source-line="37" id="lnk35"><path d="M620.85,339.89 C608.46,357.89 595.8831,376.1385 583.4731,394.1585" fill="none" id="session_control.web-to-session_control.claude_status" style="stroke:#181818;stroke-width:1;"/><polygon fill="#181818" points="580.07,399.1,588.469,393.9565,582.9059,394.9821,581.8803,389.419,580.07,399.1" style="stroke:#181818;stroke-width:1;"/></g><!--link session_control.web to session_control.codex_permissions--><g class="link" data-entity-1="ent0014" data-entity-2="ent0008" data-link-type="dependency" data-source-line="38" id="lnk36"><path d="M686.51,339.86 C708.02,355.17 732.35,375.81 748.42,399.55 C824.06,511.27 894.1,579.65 822.42,693.95 C805.27,721.31 782.4085,737.9111 753.1485,751.1211" fill="none" id="session_control.web-to-session_control.codex_permissions" style="stroke:#181818;stroke-width:1;"/><polygon fill="#181818" points="747.68,753.59,757.5287,753.5324,752.2371,751.5326,754.2369,746.241,747.68,753.59" style="stroke:#181818;stroke-width:1;"/></g><!--link session_control.web to session_control.config--><g class="link" data-entity-1="ent0014" data-entity-2="ent0009" data-link-type="dependency" data-source-line="39" id="lnk37"><path d="M673.39,339.79 C689.26,355.58 706.7,376.65 715.42,399.55 C746.32,480.62 735.8274,580.1385 727.7174,629.7785" fill="none" id="session_control.web-to-session_control.config" style="stroke:#181818;stroke-width:1;"/><polygon fill="#181818" points="726.75,635.7,732.1488,627.4627,727.5562,630.7654,724.2535,626.1728,726.75,635.7" style="stroke:#181818;stroke-width:1;"/></g><!--link session_control.web to session_control.connection_monitor--><g class="link" data-entity-1="ent0014" data-entity-2="ent0010" data-link-type="dependency" data-source-line="40" id="lnk38"><path d="M717.08,333.46 C781.98,352.07 869.6826,377.2156 940.3126,397.4756" fill="none" id="session_control.web-to-session_control.connection_monitor" style="stroke:#181818;stroke-width:1;"/><polygon fill="#181818" points="946.08,399.13,938.5318,392.8035,941.2738,397.7514,936.326,400.4934,946.08,399.13" style="stroke:#181818;stroke-width:1;"/></g><!--link session_control.web to session_control.models--><g class="link" data-entity-1="ent0014" data-entity-2="ent0012" data-link-type="dependency" data-source-line="41" id="lnk39"><path d="M563.44,329.1 C520.96,342.27 469.98,364.26 435.42,399.55 C368.92,467.47 343.0269,576.2903 333.7069,629.4103" fill="none" id="session_control.web-to-session_control.models" style="stroke:#181818;stroke-width:1;"/><polygon fill="#181818" points="332.67,635.32,338.1651,627.1467,333.5341,630.3952,330.2855,625.7642,332.67,635.32" style="stroke:#181818;stroke-width:1;"/></g><!--link session_control.web to session_control.scanner--><g class="link" data-entity-1="ent0014" data-entity-2="ent0013" data-link-type="dependency" data-source-line="42" id="lnk40"><path d="M661.95,340.02 C682.11,370.5 706.23,419.57 685.42,457.68 C671.13,483.86 650.6076,500.529 625.2376,514.479" fill="none" id="session_control.web-to-session_control.scanner" style="stroke:#181818;stroke-width:1;"/><polygon fill="#181818" points="619.98,517.37,629.7937,516.5386,624.3613,514.9609,625.9391,509.5285,619.98,517.37" style="stroke:#181818;stroke-width:1;"/></g><?plantuml-src dPNBZi8W58RtVOeJrpePPpcBUGct9WJBKObm88LczEs7Nfne0mZkclR_ltE5ElH0NAEplCKTMjvnRpeWGzXuOy4RE1ZlZGOXEsozDDIuYwH1gA4rsWOb-Ps_AOH1mEcaiFb_WbLhY2OZquPae3FVoprjmTxysH0SfS8LS0TnvIFBeNF3vw3qdL5x-eJsB9K0UpcjORi5RKIlq0NwroC-lC0hrpOyVGDZcajYR0ry3ERMq2hU2sJESz-xCPT5f4mI7tTUhAIKDiURioh1pT8SxQcq4kQJ8K-MPJoPfHY1LsQnqtByK9RZqfIFG4TvAiCEoXUinOeMSXUkN0o1ehSbs56O8uNJWAgeePCont8j3qKKbJjBSxHVF9IGWgo9tmgmsVn4Lwr6Fesxph4SPEg49nDCdE54lEMUrxd7-ceiqqhLEERDgR7SzoFIdQZ-VikLwXDrf-JncbFgskI75Oud-ER4ntHhHZ5d_6Qul3lQw9mbaMFeKjNeK_hddrUnwsKNqive1pBoL_T7obhPk7a6Vm00?></g></svg>
