<?plantuml 1.2026.2?><svg xmlns="http://www.w3.org/2000/svg" xmlns:xlink="http://www.w3.org/1999/xlink" contentStyleType="text/css" data-diagram-type="DESCRIPTION" height="442px" preserveAspectRatio="none" style="width:388px;height:442px;background:#FFFFFF;" version="1.1" viewBox="0 0 388 442" width="388px" zoomAndPan="magnify"><title>session-control Shell Script Flow</title><defs/><g><g class="title" data-source-line="1"><text fill="#000000" font-family="Monospace" font-size="14" font-weight="bold" lengthAdjust="spacing" textLength="223.3342" x="75.5015" y="24.9659">session-control&#160;Shell&#160;Script&#160;Flow</text></g><!--entity shell_scripts_install_prune_timer_sh--><g class="entity" data-qualified-name="shell_scripts_install_prune_timer_sh" data-source-line="7" id="ent0002"><rect fill="#DBEAFE" height="77.2038" rx="2.5" ry="2.5" style="stroke:#181818;stroke-width:0.5;" width="214.0673" x="7" y="144.0179"/><text fill="#000000" font-family="Monospace" font-size="14" lengthAdjust="spacing" textLength="194.0673" x="17" y="168.9839">scripts/install_prune_timer.sh</text><text fill="#000000" font-family="Monospace" font-size="14" lengthAdjust="spacing" textLength="119.3915" x="17" y="188.0518">0&#160;local&#160;shell&#160;edges</text><text fill="#000000" font-family="Monospace" font-size="14" lengthAdjust="spacing" textLength="101.7516" x="17" y="207.1197">2&#160;external&#160;tools</text></g><!--entity shell_scripts_install_web_service_sh--><g class="entity" data-qualified-name="shell_scripts_install_web_service_sh" data-source-line="8" id="ent0003"><rect fill="#DBEAFE" height="77.2038" rx="2.5" ry="2.5" style="stroke:#181818;stroke-width:0.5;" width="212.2753" x="7.9" y="284.0179"/><text fill="#000000" font-family="Monospace" font-size="14" lengthAdjust="spacing" textLength="192.2753" x="17.9" y="308.9839">scripts/install_web_service.sh</text><text fill="#000000" font-family="Monospace" font-size="14" lengthAdjust="spacing" textLength="119.3915" x="17.9" y="328.0518">0&#160;local&#160;shell&#160;edges</text><text fill="#000000" font-family="Monospace" font-size="14" lengthAdjust="spacing" textLength="101.7516" x="17.9" y="347.1197">3&#160;external&#160;tools</text></g><!--entity tool_cat--><g class="entity" data-qualified-name="tool_cat" data-source-line="9" id="ent0004"><path d="M313.0382,307.102 C316.9219,296.992 323.7892,297.3969 330.5521,304.1033 C338.0359,297.411 342.3946,300.2705 346.0038,308.1983 C354.6192,311.3511 355.1073,316.8433 349.8019,323.4603 C355.7494,329.6174 355.3712,337.5145 345.9211,340.0752 C343.5983,349.8909 336.3167,350.8902 328.9582,345.8096 C321.1432,351.9014 315.8919,349.1764 313.4827,340.2422 C302.7225,338.9926 301.3103,333.5466 305.9337,324.7843 C300.224,316.7136 301.7707,308.3515 313.0382,307.102" fill="#FEF3C7" style="stroke:#181818;stroke-width:0.5;"/><text fill="#000000" font-family="Monospace" font-size="14" lengthAdjust="spacing" textLength="19.6279" x="319.12" y="328.0539">cat</text></g><!--entity tool_clockwork--><g class="entity" data-qualified-name="tool_clockwork" data-source-line="10" id="ent0005"><path d="M290.7163,138.972 C293.8375,131.6917 298.7255,132.9007 303.1994,137.5572 C306.9653,131.8321 313.408,131.333 316.1745,138.5586 C320.5756,130.9369 325.1239,131.3264 330.0978,138.0007 C333.2511,132.6188 339.1478,132.7032 342.236,138.0742 C347.2346,131.3116 352.1665,133.0641 355.8671,139.4227 C360.5202,131.9958 365.3658,132.4051 370.2577,139.1808 C379.3473,141.8491 381.0634,147.721 374.7595,154.8203 C381.3373,162.9884 379.2149,168.1182 369.6308,171.2371 C367.2602,177.8374 362.2968,180.3502 356.396,175.2199 C353.4556,180.9206 348.2545,182.7808 344.0696,176.5001 C341.3546,183.715 334.9817,184.0793 330.4329,178.4465 C324.3337,183.7587 319.8708,183.161 316.0481,175.8519 C312.3353,180.5648 306.5845,180.6754 304.3837,174.2661 C299.5431,179.8538 295.1392,179.3237 291.1901,173.2568 C282.0706,170.1479 281.1156,163.3723 286.7758,156.3943 C278.7053,148.4245 282.0601,143.1585 290.7163,138.972" fill="#FEF3C7" style="stroke:#181818;stroke-width:0.5;"/><text fill="#000000" font-family="Monospace" font-size="14" lengthAdjust="spacing" textLength="65.7297" x="296.07" y="160.0539">clockwork</text></g><!--entity tool_mkdir--><g class="entity" data-qualified-name="tool_mkdir" data-source-line="11" id="ent0006"><path d="M303.9613,390.6453 C307.7859,384.8092 313.1133,384.8081 316.4387,391.1565 C319.9658,384.2931 325.5326,384.5706 330.2647,389.7761 C334.2026,383.7431 338.4504,384.2672 342.7456,389.3759 C347.0927,384.0338 352.3454,383.5913 355.4507,390.6484 C368.0544,390.868 370.5908,398.0573 366.1945,408.5053 C370.7829,417.2585 365.2885,423.689 356.3793,423.7543 C353.4407,430.0177 349.5679,432.2713 343.7234,426.921 C340.8757,433.6074 334.6846,435.2515 329.3639,429.8614 C323.9332,434.3793 320.0474,432.2275 317.975,426.2257 C312.2931,433.4477 305.8804,431.4697 302.8283,423.5884 C293.4784,421.5254 289.1033,417.0298 294.9615,407.5208 C289.5052,397.0865 293.7696,392.7344 303.9613,390.6453" fill="#FEF3C7" style="stroke:#181818;stroke-width:0.5;"/><text fill="#000000" font-family="Monospace" font-size="14" lengthAdjust="spacing" textLength="38.5699" x="309.65" y="412.0539">mkdir</text></g><!--entity tool_systemctl--><g class="entity" data-qualified-name="tool_systemctl" data-source-line="12" id="ent0007"><path d="M291.0943,222.3534 C294.5348,216.4346 301.0593,215.7528 304.16,222.6983 C307.9016,215.9876 312.9385,215.9109 317.4723,221.8655 C321.5041,215.6184 326.0424,216.111 330.4876,221.399 C334.0315,215.3649 337.6975,215.9477 341.6413,220.9966 C346.6021,214.3373 351.0737,215.2981 354.8866,222.1241 C358.474,216.7637 364.7125,215.856 367.7665,222.6875 C376.4628,225.4202 379.4591,233.6276 372.9798,240.7422 C378.3152,246.5469 376.532,253.3289 368.9504,255.6399 C366.381,264.1785 360.8483,264.8496 354.541,259.525 C351.8789,265.1251 347.7398,265.8727 343.0865,261.9101 C340.2241,268.5331 334.9062,270.5256 329.9594,263.9895 C324.518,269.5597 320.0852,268.2314 317.5895,261.1169 C313.1927,266.4105 307.4729,266.7854 304.5561,259.5744 C299.6375,263.6436 295.218,264.3731 292.6584,257.1 C281.8943,253.9817 281.7523,248.1142 287.6276,240.0782 C280.8474,232.82 281.1347,226.3375 291.0943,222.3534" fill="#FEF3C7" style="stroke:#181818;stroke-width:0.5;"/><text fill="#000000" font-family="Monospace" font-size="14" lengthAdjust="spacing" textLength="61.9778" x="297.94" y="244.0539">systemctl</text></g><g class="entity" data-qualified-name="shellGraphSummary" data-source-line="19" id="ent0013"><path d="M17.12,46.0679 L17.12,109.186 L210.9551,109.186 L210.9551,56.0679 L200.9551,46.0679 L17.12,46.0679" fill="#FEFFDD" style="stroke:#181818;stroke-width:0.5;"/><path d="M200.9551,46.0679 L200.9551,56.0679 L210.9551,56.0679 L200.9551,46.0679" fill="#FEFFDD" style="stroke:#181818;stroke-width:1;"/><text fill="#000000" font-family="Monospace" font-size="13" lengthAdjust="spacing" textLength="141.5311" x="23.12" y="64.9649">Scanned&#160;2&#160;shell&#160;scripts.</text><text fill="#000000" font-family="Monospace" font-size="13" lengthAdjust="spacing" textLength="172.8351" x="23.12" y="82.6709">Detected&#160;0&#160;local&#160;shell&#160;edges.</text><text fill="#000000" font-family="Monospace" font-size="13" lengthAdjust="spacing" textLength="156.4551" x="23.12" y="100.377">Detected&#160;4&#160;external&#160;tools.</text></g><!--link shell_scripts_install_prune_timer_sh to tool_clockwork--><g class="link" data-entity-1="ent0002" data-entity-2="ent0005" data-link-type="dependency" data-source-line="13" id="lnk8"><path d="M221.48,161.5879 C242.26,161.5879 257.04,161.5879 274.7,161.5879" fill="none" id="shell_scripts_install_prune_timer_sh-to-tool_clockwork" style="stroke:#181818;stroke-width:1;"/><polygon fill="#181818" points="280.7,161.5879,271.7,157.5879,275.7,161.5879,271.7,165.5879,280.7,161.5879" style="stroke:#181818;stroke-width:1;"/></g><!--link shell_scripts_install_prune_timer_sh to tool_systemctl--><g class="link" data-entity-1="ent0002" data-entity-2="ent0007" data-link-type="dependency" data-source-line="14" id="lnk9"><path d="M221.48,217.6579 C242.99,217.6579 258.5,217.6579 276.57,217.6579" fill="none" id="shell_scripts_install_prune_timer_sh-to-tool_systemctl" style="stroke:#181818;stroke-width:1;"/><polygon fill="#181818" points="282.57,217.6579,273.57,213.6579,277.57,217.6579,273.57,221.6579,282.57,217.6579" style="stroke:#181818;stroke-width:1;"/></g><!--link shell_scripts_install_web_service_sh to tool_cat--><g class="link" data-entity-1="ent0003" data-entity-2="ent0004" data-link-type="dependency" data-source-line="15" id="lnk10"><path d="M220.54,322.6279 C251.78,322.6279 277.13,322.6279 298.01,322.6279" fill="none" id="shell_scripts_install_web_service_sh-to-tool_cat" style="stroke:#181818;stroke-width:1;"/><polygon fill="#181818" points="304.01,322.6279,295.01,318.6279,299.01,322.6279,295.01,326.6279,304.01,322.6279" style="stroke:#181818;stroke-width:1;"/></g><!--link shell_scripts_install_web_service_sh to tool_mkdir--><g class="link" data-entity-1="ent0003" data-entity-2="ent0006" data-link-type="dependency" data-source-line="16" id="lnk11"><path d="M220.48,354.1879 C261.98,354.1879 299.8,354.1879 299.8,354.1879 C299.8,354.1879 299.8,362.1279 299.8,375.6379" fill="none" id="shell_scripts_install_web_service_sh-to-tool_mkdir" style="stroke:#181818;stroke-width:1;"/><polygon fill="#181818" points="299.8,381.6379,303.8,372.6379,299.8,376.6379,295.8,372.6379,299.8,381.6379" style="stroke:#181818;stroke-width:1;"/></g><!--link shell_scripts_install_web_service_sh to tool_systemctl--><g class="link" data-entity-1="ent0003" data-entity-2="ent0007" data-link-type="dependency" data-source-line="17" id="lnk12"><path d="M220.48,291.0579 C256.97,291.0579 288.8,291.0579 288.8,291.0579 C288.8,291.0579 288.8,283.1179 288.8,269.6079" fill="none" id="shell_scripts_install_web_service_sh-to-tool_systemctl" style="stroke:#181818;stroke-width:1;"/><polygon fill="#181818" points="288.8,263.6079,284.8,272.6079,288.8,268.6079,292.8,272.6079,288.8,263.6079" style="stroke:#181818;stroke-width:1;"/></g><?plantuml-src bPB1JiCm38RlVGfhEs-W3OaR4h2L4rnwdLI5r5kZfdOLkvI-FTaONJK1sYwHOd_-_SUnElK8WYAEQMQPDB27h4GVJnjSev1wxXAFMmLb26vNAXGkeDLOaKZbg371r22bARXpj8EjyOAZJ85RqtfDe_YRgH5UcLWQOyUCvRfXGj9C-sXeBszevyU8TuJQDmWSjEHaG60Y1wDouqZKU9yteINCrTKOvb9kw1OyM-EZnVspiDYXR6W1-AaOACQLsSi4Z7mJ-L4l_qKlbnAcgwVrOxh-pq67xxbW-70M_tQmlDp1I6_im7fk2vXOeuVQlKeUBp1Dr-do-Nx8n-PLnw4QKJ-XSxQkukUUkCFrd95U56kh_iGDeO6zQ9IpsSEPdolhXhx9HOCxzJDwPSLX4bVMdDmHAmxV-n9CKsPjNPlG9varH5Z0uhWSH-rviaAD2nOplopFA7jtjaNp1Ac0VRyl?></g></svg>
