<?plantuml 1.2026.2?><svg xmlns="http://www.w3.org/2000/svg" xmlns:xlink="http://www.w3.org/1999/xlink" contentStyleType="text/css" data-diagram-type="DESCRIPTION" height="992px" preserveAspectRatio="none" style="width:496px;height:992px;background:#FFFFFF;" version="1.1" viewBox="0 0 496 992" width="496px" zoomAndPan="magnify"><title>session-control Tooling Integrations</title><defs/><g><g class="title" data-source-line="1"><text fill="#000000" font-family="Monospace" font-size="14" font-weight="bold" lengthAdjust="spacing" textLength="252.4681" x="115.1404" y="24.9659">session-control&#160;Tooling&#160;Integrations</text></g><!--entity source_github_workflows_ci_yml--><g class="entity" data-qualified-name="source_github_workflows_ci_yml" data-source-line="7" id="ent0002"><rect fill="#E0F2FE" height="58.1358" rx="2.5" ry="2.5" style="stroke:#181818;stroke-width:0.5;" width="182.6234" x="39.08" y="699.7079"/><text fill="#000000" font-family="Monospace" font-size="14" lengthAdjust="spacing" textLength="162.6234" x="49.08" y="724.6739">.github/workflows/ci.yml</text><text fill="#000000" font-family="Monospace" font-size="14" lengthAdjust="spacing" textLength="105.3356" x="49.08" y="743.7418">6&#160;detected&#160;tools</text></g><!--entity source_github_workflows_secret_scan_yml--><g class="entity" data-qualified-name="source_github_workflows_secret_scan_yml" data-source-line="8" id="ent0003"><rect fill="#E0F2FE" height="58.1358" rx="2.5" ry="2.5" style="stroke:#181818;stroke-width:0.5;" width="246.7851" x="7" y="569.7079"/><text fill="#000000" font-family="Monospace" font-size="14" lengthAdjust="spacing" textLength="226.7851" x="17" y="594.6739">.github/workflows/secret-scan.yml</text><text fill="#000000" font-family="Monospace" font-size="14" lengthAdjust="spacing" textLength="105.3356" x="17" y="613.7418">4&#160;detected&#160;tools</text></g><!--entity source_scripts_install_prune_timer_sh--><g class="entity" data-qualified-name="source_scripts_install_prune_timer_sh" data-source-line="9" id="ent0004"><rect fill="#E0F2FE" height="58.1358" rx="2.5" ry="2.5" style="stroke:#181818;stroke-width:0.5;" width="214.0673" x="23.36" y="126.7079"/><text fill="#000000" font-family="Monospace" font-size="14" lengthAdjust="spacing" textLength="194.0673" x="33.36" y="151.6739">scripts/install_prune_timer.sh</text><text fill="#000000" font-family="Monospace" font-size="14" lengthAdjust="spacing" textLength="105.3356" x="33.36" y="170.7418">2&#160;detected&#160;tools</text></g><!--entity source_scripts_install_web_service_sh--><g class="entity" data-qualified-name="source_scripts_install_web_service_sh" data-source-line="10" id="ent0005"><rect fill="#E0F2FE" height="58.1358" rx="2.5" ry="2.5" style="stroke:#181818;stroke-width:0.5;" width="212.2753" x="24.25" y="256.7079"/><text fill="#000000" font-family="Monospace" font-size="14" lengthAdjust="spacing" textLength="192.2753" x="34.25" y="281.6739">scripts/install_web_service.sh</text><text fill="#000000" font-family="Monospace" font-size="14" lengthAdjust="spacing" textLength="105.3356" x="34.25" y="300.7418">3&#160;detected&#160;tools</text></g><!--entity tool_actions_checkout--><g class="entity" data-qualified-name="tool_actions_checkout" data-source-line="11" id="ent0006"><path d="M337.4021,521.6036 C341.2539,515.4446 345.9965,515.5851 349.726,521.7262 C353.0317,514.9632 358.0334,516.2122 362.072,520.9387 C366.6923,513.7913 370.9529,513.9161 375.5939,520.919 C379.8687,514.6356 383.7013,515.6236 387.7973,521.1045 C391.1288,516.4186 396.3424,516.5722 399.1226,521.7382 C401.8208,516.0805 408.0873,515.5886 411.6645,520.7161 C415.7441,514.6788 421.0419,514.7384 425.415,520.3702 C430.5896,514.9347 435.3512,515.4348 438.2016,522.7085 C441.1726,516.5845 446.6529,516.6686 449.6915,522.6443 C453.6603,516.8108 458.0444,517.5678 462.0544,522.5974 C471.7357,525.007 473.0459,531.1667 468.0482,538.955 C473.4931,547.4122 472.028,552.5155 462.0847,555.3885 C459.8371,561.0599 454.4773,561.5312 451.3014,556.3073 C447.7144,562.8175 441.5523,563.4068 436.9611,557.4636 C434.2276,563.3661 430.2571,564.9815 425.0271,560.2708 C421.7462,566.7747 417.2501,566.5988 413.1701,561.0573 C410.6417,568.4965 404.1243,568.9634 400.116,562.4411 C395.2127,568.8389 389.7536,566.7632 387.2665,560.0695 C383.3306,566.8475 377.4089,566.6921 373.8381,559.7131 C369.3034,565.2315 364.6151,563.7529 361.9415,557.7855 C358.0643,562.903 352.7053,562.5251 350.1614,556.3898 C345.7005,561.8529 339.4786,562.5887 336.2171,555.0986 C329.1191,551.0471 327.7177,543.0642 336.2987,539.0927 C328.0564,533.0645 329.0035,526.5819 337.4021,521.6036" fill="#FEF3C7" style="stroke:#181818;stroke-width:0.5;"/><text fill="#000000" font-family="Monospace" font-size="14" lengthAdjust="spacing" textLength="111.9156" x="342.97" y="543.2039">actions/checkout</text></g><!--entity tool_actions_setup_python--><g class="entity" data-qualified-name="tool_actions_setup_python" data-source-line="12" id="ent0007"><path d="M323.0391,606.7886 C325.2516,600.7338 329.4652,600.672 333.2839,605.2395 C338.1476,599.9098 342.4869,600.5586 345.8797,606.8357 C347.7757,602.2463 352.5736,600.3921 356.0296,605.1398 C359.3891,598.8472 362.9966,598.9538 367.0651,604.4776 C370.6453,598.9911 374.383,599.8893 377.8327,604.6152 C381.6714,600.2736 385.3098,600.602 388.086,605.7618 C391.2614,599.9573 396.3179,598.3045 401.0598,603.9936 C404.1056,599.0228 407.044,599.0813 410.165,603.9238 C414.4981,598.1812 418.8261,598.8219 422.5553,604.5748 C426.598,599.6374 430.4671,600.3012 433.5286,605.6243 C436.2971,600.2513 441.0605,600.9276 444.1699,605.2501 C447.2203,599.606 452.0218,600.3211 454.7525,605.5609 C458.9774,599.9187 462.7772,600.6022 466.8137,605.771 C470.6054,600.5006 475.0572,600.814 478.2576,606.3945 C487.4026,609.0958 489.2341,617.119 482.714,623.8252 C489.7489,631.9209 487.3016,638.4588 476.7114,640.0228 C473.2294,645.6135 469.451,645.5411 466.2667,639.7495 C464.2218,645.6253 459.2828,645.2488 455.8159,641.2552 C453.069,647.1179 448.4412,647.2693 444.5438,642.4719 C441.4227,648.5877 435.6731,648.3233 432.6038,642.4204 C430.1805,647.9861 426.9516,647.365 423.0533,643.9974 C419.8992,649.1305 415.3385,649.7664 411.8269,644.3789 C409.4521,649.7606 403.7919,650.2346 400.4429,645.4721 C396.8616,651.4957 392.3183,651.169 388.631,645.5798 C385.0563,650.1587 379.8635,650.8475 377.1666,644.6464 C373.5168,649.1299 369.2118,647.6187 367.4653,642.6856 C363.0132,646.7163 359.2824,646.3805 356.1281,641.1046 C351.9918,647.2135 348.0778,645.9096 344.1984,640.8306 C341.971,645.2565 337.3423,645.123 334.6888,641.3232 C330.9147,646.9986 325.3349,646.3849 322.8362,640.0631 C313.0993,638.7773 309.5289,631.6095 314.1011,622.9989 C309.1385,614.0828 311.6667,606.6979 323.0391,606.7886" fill="#FEF3C7" style="stroke:#181818;stroke-width:0.5;"/><text fill="#000000" font-family="Monospace" font-size="14" lengthAdjust="spacing" textLength="140.2795" x="328.79" y="627.2039">actions/setup-python</text></g><!--entity tool_black--><g class="entity" data-qualified-name="tool_black" data-source-line="13" id="ent0008"><path d="M375.4112,774.8532 C377.433,768.3588 383.4775,767.8391 387.6073,772.5611 C391.4781,765.9361 395.8047,765.7907 400.2324,772.0139 C404.642,766.5195 408.4921,766.7362 412.0159,772.9086 C416.261,767.1503 422.0544,767.1937 424.9093,774.3017 C432.9022,778.1633 433.6231,784.6647 427.1001,790.4906 C433.6122,796.6082 432.731,804.4189 424.0817,807.9092 C422.3548,814.1464 417.0959,816.6505 411.745,812.025 C410.7492,818.2827 405.437,819.3895 401.0839,815.5806 C394.5392,821.0675 389.1235,819.1901 387.5711,810.7403 C381.7756,816.6409 376.9728,815.2527 374.8437,807.3578 C364.2235,805.4828 362.7382,799.3657 368.7349,791.206 C362.8182,782.88 366.6106,777.1707 375.4112,774.8532" fill="#FEF3C7" style="stroke:#181818;stroke-width:0.5;"/><text fill="#000000" font-family="Monospace" font-size="14" lengthAdjust="spacing" textLength="34.2719" x="381.79" y="795.2039">black</text></g><!--entity tool_cat--><g class="entity" data-qualified-name="tool_cat" data-source-line="14" id="ent0009"><path d="M383.0282,270.252 C386.9119,260.142 393.7792,260.5469 400.5421,267.2533 C408.0259,260.561 412.3846,263.4205 415.9938,271.3483 C424.6092,274.5011 425.0973,279.9933 419.7919,286.6103 C425.7394,292.7674 425.3612,300.6645 415.9111,303.2252 C413.5883,313.0409 406.3067,314.0402 398.9482,308.9596 C391.1332,315.0514 385.8819,312.3264 383.4727,303.3922 C372.7125,302.1426 371.3003,296.6966 375.9237,287.9343 C370.214,279.8636 371.7607,271.5015 383.0282,270.252" fill="#FEF3C7" style="stroke:#181818;stroke-width:0.5;"/><text fill="#000000" font-family="Monospace" font-size="14" lengthAdjust="spacing" textLength="19.6279" x="389.11" y="291.2039">cat</text></g><!--entity tool_clockwork--><g class="entity" data-qualified-name="tool_clockwork" data-source-line="15" id="ent0010"><path d="M360.7063,102.122 C363.8275,94.8417 368.7155,96.0507 373.1894,100.7072 C376.9553,94.9821 383.398,94.483 386.1645,101.7086 C390.5656,94.0869 395.1139,94.4764 400.0878,101.1507 C403.2411,95.7688 409.1378,95.8532 412.226,101.2242 C417.2246,94.4616 422.1565,96.2141 425.8571,102.5727 C430.5102,95.1458 435.3558,95.5551 440.2477,102.3308 C449.3373,104.9991 451.0534,110.871 444.7495,117.9703 C451.3273,126.1384 449.2049,131.2682 439.6208,134.3871 C437.2502,140.9874 432.2868,143.5002 426.386,138.3699 C423.4456,144.0706 418.2445,145.9308 414.0596,139.6501 C411.3446,146.865 404.9717,147.2293 400.4229,141.5965 C394.3237,146.9087 389.8608,146.311 386.0381,139.0019 C382.3253,143.7148 376.5745,143.8254 374.3737,137.4161 C369.5331,143.0038 365.1292,142.4737 361.1801,136.4068 C352.0606,133.2979 351.1056,126.5223 356.7658,119.5443 C348.6953,111.5745 352.0501,106.3085 360.7063,102.122" fill="#FEF3C7" style="stroke:#181818;stroke-width:0.5;"/><text fill="#000000" font-family="Monospace" font-size="14" lengthAdjust="spacing" textLength="65.7297" x="366.06" y="123.2039">clockwork</text></g><!--entity tool_mkdir--><g class="entity" data-qualified-name="tool_mkdir" data-source-line="16" id="ent0011"><path d="M373.9513,353.7953 C377.7759,347.9592 383.1033,347.9581 386.4287,354.3065 C389.9558,347.4431 395.5226,347.7206 400.2547,352.9261 C404.1926,346.8931 408.4404,347.4172 412.7356,352.5259 C417.0827,347.1838 422.3354,346.7413 425.4407,353.7984 C438.0444,354.018 440.5808,361.2073 436.1845,371.6553 C440.7729,380.4085 435.2785,386.839 426.3693,386.9043 C423.4307,393.1677 419.5579,395.4213 413.7134,390.071 C410.8657,396.7574 404.6746,398.4015 399.3539,393.0114 C393.9232,397.5293 390.0374,395.3775 387.965,389.3757 C382.2831,396.5977 375.8704,394.6197 372.8183,386.7384 C363.4684,384.6754 359.0933,380.1798 364.9515,370.6708 C359.4952,360.2365 363.7596,355.8844 373.9513,353.7953" fill="#FEF3C7" style="stroke:#181818;stroke-width:0.5;"/><text fill="#000000" font-family="Monospace" font-size="14" lengthAdjust="spacing" textLength="38.5699" x="379.64" y="375.2039">mkdir</text></g><!--entity tool_pip--><g class="entity" data-qualified-name="tool_pip" data-source-line="17" id="ent0012"><path d="M382.8012,689.3066 C387.1455,681.6787 394.6107,680.2161 400.0651,688.0686 C407.4731,679.9547 413.5818,681.9022 417.8705,691.2494 C427.2419,692.5015 431.3019,697.3941 426.467,706.6012 C432.5578,716.3279 426.8844,722.752 416.9961,723.5496 C414.0861,733.5252 408.3952,735.8925 400.0133,729.0874 C391.6973,736.1997 383.8826,732.2965 381.8946,722.3617 C374.082,718.083 371.65,713.4608 379.1587,706.5339 C372.0908,699.3159 372.9757,692.9528 382.8012,689.3066" fill="#FEF3C7" style="stroke:#181818;stroke-width:0.5;"/><text fill="#000000" font-family="Monospace" font-size="14" lengthAdjust="spacing" textLength="20.8319" x="388.51" y="711.2039">pip</text></g><!--entity tool_pre_commit--><g class="entity" data-qualified-name="tool_pre_commit" data-source-line="18" id="ent0013"><path d="M355.0872,437.6907 C357.8731,432.5944 362.449,432.9561 365.1929,437.7338 C369.2871,431.4865 374.6535,432.916 378.1236,438.4206 C381.457,432.9108 384.7273,432.4829 388.4843,438.0235 C391.3895,431.0959 395.9597,431.06 400.7078,436.1488 C404.5356,430.8867 408.9472,432.9919 411.2408,437.7599 C414.3878,432.6092 418.4337,432.3945 421.969,437.3474 C425.8236,431.4826 430.746,432.608 433.8261,438.1523 C436.9073,432.4244 441.5681,433.7286 444.5563,438.2497 C452.7848,442.061 453.4661,449.0747 446.3036,454.5371 C454.324,459.5006 453.805,465.1823 446.4724,470.3101 C443.276,475.7326 438.9713,476.475 435.0297,471.0998 C432.3579,477.7881 427.2786,478.0445 422.751,473.0502 C418.7697,478.4565 415.438,477.7176 411.7046,472.7852 C409.285,478.4961 403.9988,478.6378 400.9836,473.3666 C397.5617,478.1221 392.4444,478.5412 389.3158,473.0332 C385.2778,476.8305 380.5495,477.1152 378.4036,470.959 C375.3916,478.001 369.2341,477.2354 365.1827,472.0863 C361.6268,476.583 355.9787,476.2198 353.6147,470.7087 C344.8079,469.5597 341.8525,461.3143 346.7287,454.3911 C342.0121,444.9882 343.4316,438.8994 355.0872,437.6907" fill="#FEF3C7" style="stroke:#181818;stroke-width:0.5;"/><text fill="#000000" font-family="Monospace" font-size="14" lengthAdjust="spacing" textLength="76.8317" x="360.51" y="459.2039">pre-commit</text></g><!--entity tool_pytest--><g class="entity" data-qualified-name="tool_pytest" data-source-line="19" id="ent0014"><path d="M373.0393,858.7232 C375.7545,851.845 382.8122,850.2415 387.4773,856.5957 C390.7065,850.8063 396.3945,850.5653 400.332,855.7673 C404.3587,849.9968 410.2201,851.0771 412.6094,857.426 C418.2968,850.0824 423.4161,849.6968 427.994,858.4842 C439.7775,858.8154 443.2119,865.7337 436.6509,875.4341 C442.1747,885.0046 438.325,892.185 426.9491,891.6356 C425.2427,899.277 420.419,901.0862 414.5981,895.4684 C412.7712,903.0677 406.415,906.1915 399.7465,901.1624 C394.5618,905.384 387.9224,904.1444 387.285,896.4192 C380.1872,902.3782 373.623,899.7221 373.1006,890.3397 C364.9931,887.5464 361.5582,881.8936 367.8968,874.3877 C360.898,866.929 365.0714,861.2685 373.0393,858.7232" fill="#FEF3C7" style="stroke:#181818;stroke-width:0.5;"/><text fill="#000000" font-family="Monospace" font-size="14" lengthAdjust="spacing" textLength="40.4599" x="378.69" y="879.2039">pytest</text></g><!--entity tool_ruff--><g class="entity" data-qualified-name="tool_ruff" data-source-line="20" id="ent0015"><path d="M380.4732,941.9253 C385.3431,932.5258 394.7261,931.7936 400.3462,941.1296 C407.1549,933.4368 412.8365,933.4715 417.9754,942.8536 C428.531,943.5033 430.7817,950.0972 425.9655,958.5645 C430.7434,967.394 427.3404,972.3586 418.3339,974.6472 C413.1911,984.6025 407.5008,985.3056 399.8629,977.1988 C393.2135,984.788 384.9281,985.587 380.7621,974.6398 C371.7582,973.3319 369.0361,966.3738 375.279,959.5323 C367.959,952.3011 371.7246,944.416 380.4732,941.9253" fill="#FEF3C7" style="stroke:#181818;stroke-width:0.5;"/><text fill="#000000" font-family="Monospace" font-size="14" lengthAdjust="spacing" textLength="24.0659" x="386.89" y="963.2039">ruff</text></g><!--entity tool_systemctl--><g class="entity" data-qualified-name="tool_systemctl" data-source-line="21" id="ent0016"><path d="M361.0943,185.5034 C364.5348,179.5846 371.0593,178.9028 374.16,185.8483 C377.9016,179.1376 382.9385,179.0609 387.4723,185.0155 C391.5041,178.7684 396.0424,179.261 400.4876,184.549 C404.0315,178.5149 407.6975,179.0977 411.6413,184.1466 C416.6021,177.4873 421.0737,178.4481 424.8866,185.2741 C428.474,179.9137 434.7125,179.006 437.7665,185.8375 C446.4628,188.5702 449.4591,196.7776 442.9798,203.8922 C448.3152,209.6969 446.532,216.4789 438.9504,218.7899 C436.381,227.3285 430.8483,227.9996 424.541,222.675 C421.8789,228.2751 417.7398,229.0227 413.0865,225.0601 C410.2241,231.6831 404.9062,233.6756 399.9594,227.1395 C394.518,232.7097 390.0852,231.3814 387.5895,224.2669 C383.1927,229.5605 377.4729,229.9354 374.5561,222.7244 C369.6375,226.7936 365.218,227.5231 362.6584,220.25 C351.8943,217.1317 351.7523,211.2642 357.6276,203.2282 C350.8474,195.97 351.1347,189.4875 361.0943,185.5034" fill="#FEF3C7" style="stroke:#181818;stroke-width:0.5;"/><text fill="#000000" font-family="Monospace" font-size="14" lengthAdjust="spacing" textLength="61.9778" x="367.94" y="207.2039">systemctl</text></g><g class="entity" data-qualified-name="toolingGraphSummary" data-source-line="38" id="ent0032"><path d="M26.64,46.0679 L26.64,91.4799 L234.1512,91.4799 L234.1512,56.0679 L224.1512,46.0679 L26.64,46.0679" fill="#FEFFDD" style="stroke:#181818;stroke-width:0.5;"/><path d="M224.1512,46.0679 L224.1512,56.0679 L234.1512,56.0679 L224.1512,46.0679" fill="#FEFFDD" style="stroke:#181818;stroke-width:1;"/><text fill="#000000" font-family="Monospace" font-size="13" lengthAdjust="spacing" textLength="186.5112" x="32.64" y="64.9649">Scanned&#160;4&#160;tooling&#160;entrypoints.</text><text fill="#000000" font-family="Monospace" font-size="13" lengthAdjust="spacing" textLength="179.2182" x="32.64" y="82.6709">Detected&#160;11&#160;third-party&#160;tools.</text></g><!--link source_github_workflows_ci_yml to tool_actions_checkout--><g class="link" data-entity-1="ent0002" data-entity-2="ent0006" data-link-type="dependency" data-source-line="22" id="lnk17"><path d="M222,707.3579 C254.91,707.3579 284.06,707.3579 284.06,707.3579 C284.06,707.3579 284.06,545.9479 284.06,545.9479 C284.06,545.9479 298.13,545.9479 321.49,545.9479" fill="none" id="source_github_workflows_ci_yml-to-tool_actions_checkout" style="stroke:#181818;stroke-width:1;"/><polygon fill="#181818" points="327.49,545.9479,318.49,541.9479,322.49,545.9479,318.49,549.9479,327.49,545.9479" style="stroke:#181818;stroke-width:1;"/></g><!--link source_github_workflows_ci_yml to tool_actions_setup_python--><g class="link" data-entity-1="ent0002" data-entity-2="ent0007" data-link-type="dependency" data-source-line="23" id="lnk18"><path d="M221.92,715.0079 C277.99,715.0079 339.06,715.0079 339.06,715.0079 C339.06,715.0079 339.06,680.3779 339.06,652.7579" fill="none" id="source_github_workflows_ci_yml-to-tool_actions_setup_python" style="stroke:#181818;stroke-width:1;"/><polygon fill="#181818" points="339.06,646.7579,335.06,655.7579,339.06,651.7579,343.06,655.7579,339.06,646.7579" style="stroke:#181818;stroke-width:1;"/></g><!--link source_github_workflows_ci_yml to tool_black--><g class="link" data-entity-1="ent0002" data-entity-2="ent0008" data-link-type="dependency" data-source-line="24" id="lnk19"><path d="M222.1,744.0779 C299.94,744.0779 399.06,744.0779 399.06,744.0779 C399.06,744.0779 399.06,748.1179 399.06,758.7879" fill="none" id="source_github_workflows_ci_yml-to-tool_black" style="stroke:#181818;stroke-width:1;"/><polygon fill="#181818" points="399.06,764.7879,403.06,755.7879,399.06,759.7879,395.06,755.7879,399.06,764.7879" style="stroke:#181818;stroke-width:1;"/></g><!--link source_github_workflows_ci_yml to tool_pip--><g class="link" data-entity-1="ent0002" data-entity-2="ent0012" data-link-type="dependency" data-source-line="25" id="lnk20"><path d="M222.06,722.6579 C275.38,722.6579 332.72,722.6579 367.28,722.6579" fill="none" id="source_github_workflows_ci_yml-to-tool_pip" style="stroke:#181818;stroke-width:1;"/><polygon fill="#181818" points="373.28,722.6579,364.28,718.6579,368.28,722.6579,364.28,726.6579,373.28,722.6579" style="stroke:#181818;stroke-width:1;"/></g><!--link source_github_workflows_ci_yml to tool_pytest--><g class="link" data-entity-1="ent0002" data-entity-2="ent0014" data-link-type="dependency" data-source-line="26" id="lnk21"><path d="M161.06,758.1179 C161.06,800.4879 161.06,873.7779 161.06,873.7779 C161.06,873.7779 290.96,873.7779 357.31,873.7779" fill="none" id="source_github_workflows_ci_yml-to-tool_pytest" style="stroke:#181818;stroke-width:1;"/><polygon fill="#181818" points="363.31,873.7779,354.31,869.7779,358.31,873.7779,354.31,877.7779,363.31,873.7779" style="stroke:#181818;stroke-width:1;"/></g><!--link source_github_workflows_ci_yml to tool_ruff--><g class="link" data-entity-1="ent0002" data-entity-2="ent0015" data-link-type="dependency" data-source-line="27" id="lnk22"><path d="M100.06,758.2379 C100.06,820.0879 100.06,957.7779 100.06,957.7779 C100.06,957.7779 291.83,957.7779 365.61,957.7779" fill="none" id="source_github_workflows_ci_yml-to-tool_ruff" style="stroke:#181818;stroke-width:1;"/><polygon fill="#181818" points="371.61,957.7779,362.61,953.7779,366.61,957.7779,362.61,961.7779,371.61,957.7779" style="stroke:#181818;stroke-width:1;"/></g><!--link source_github_workflows_secret_scan_yml to tool_actions_checkout--><g class="link" data-entity-1="ent0003" data-entity-2="ent0006" data-link-type="dependency" data-source-line="28" id="lnk23"><path d="M248.06,569.4379 C248.06,550.5779 248.06,529.5979 248.06,529.5979 C248.06,529.5979 282.48,529.5979 321.47,529.5979" fill="none" id="source_github_workflows_secret_scan_yml-to-tool_actions_checkout" style="stroke:#181818;stroke-width:1;"/><polygon fill="#181818" points="327.47,529.5979,318.47,525.5979,322.47,529.5979,318.47,533.5979,327.47,529.5979" style="stroke:#181818;stroke-width:1;"/></g><!--link source_github_workflows_secret_scan_yml to tool_actions_setup_python--><g class="link" data-entity-1="ent0003" data-entity-2="ent0007" data-link-type="dependency" data-source-line="29" id="lnk24"><path d="M254.05,612.5379 C274.14,612.5379 288.56,612.5379 307.48,612.5379" fill="none" id="source_github_workflows_secret_scan_yml-to-tool_actions_setup_python" style="stroke:#181818;stroke-width:1;"/><polygon fill="#181818" points="313.48,612.5379,304.48,608.5379,308.48,612.5379,304.48,616.5379,313.48,612.5379" style="stroke:#181818;stroke-width:1;"/></g><!--link source_github_workflows_secret_scan_yml to tool_pip--><g class="link" data-entity-1="ent0003" data-entity-2="ent0012" data-link-type="dependency" data-source-line="30" id="lnk25"><path d="M238.06,628.2879 C238.06,655.0979 238.06,690.4779 238.06,690.4779 C238.06,690.4779 321.61,690.4779 367.08,690.4779" fill="none" id="source_github_workflows_secret_scan_yml-to-tool_pip" style="stroke:#181818;stroke-width:1;"/><polygon fill="#181818" points="373.08,690.4779,364.08,686.4779,368.08,690.4779,364.08,694.4779,373.08,690.4779" style="stroke:#181818;stroke-width:1;"/></g><!--link source_github_workflows_secret_scan_yml to tool_pre_commit--><g class="link" data-entity-1="ent0003" data-entity-2="ent0013" data-link-type="dependency" data-source-line="31" id="lnk26"><path d="M243.06,569.4279 C243.06,527.0579 243.06,453.7779 243.06,453.7779 C243.06,453.7779 294.2,453.7779 339.29,453.7779" fill="none" id="source_github_workflows_secret_scan_yml-to-tool_pre_commit" style="stroke:#181818;stroke-width:1;"/><polygon fill="#181818" points="345.29,453.7779,336.29,449.7779,340.29,453.7779,336.29,457.7779,345.29,453.7779" style="stroke:#181818;stroke-width:1;"/></g><!--link source_scripts_install_prune_timer_sh to tool_clockwork--><g class="link" data-entity-1="ent0004" data-entity-2="ent0010" data-link-type="dependency" data-source-line="32" id="lnk27"><path d="M237.68,134.5079 C276.83,134.5079 313.18,134.5079 344.64,134.5079" fill="none" id="source_scripts_install_prune_timer_sh-to-tool_clockwork" style="stroke:#181818;stroke-width:1;"/><polygon fill="#181818" points="350.64,134.5079,341.64,130.5079,345.64,134.5079,341.64,138.5079,350.64,134.5079" style="stroke:#181818;stroke-width:1;"/></g><!--link source_scripts_install_prune_timer_sh to tool_systemctl--><g class="link" data-entity-1="ent0004" data-entity-2="ent0016" data-link-type="dependency" data-source-line="33" id="lnk28"><path d="M237.68,181.0379 C277.71,181.0379 315.07,181.0379 346.74,181.0379" fill="none" id="source_scripts_install_prune_timer_sh-to-tool_systemctl" style="stroke:#181818;stroke-width:1;"/><polygon fill="#181818" points="352.74,181.0379,343.74,177.0379,347.74,181.0379,343.74,185.0379,352.74,181.0379" style="stroke:#181818;stroke-width:1;"/></g><!--link source_scripts_install_web_service_sh to tool_cat--><g class="link" data-entity-1="ent0005" data-entity-2="ent0009" data-link-type="dependency" data-source-line="34" id="lnk29"><path d="M236.91,285.7779 C286.99,285.7779 336.45,285.7779 367.76,285.7779" fill="none" id="source_scripts_install_web_service_sh-to-tool_cat" style="stroke:#181818;stroke-width:1;"/><polygon fill="#181818" points="373.76,285.7779,364.76,281.7779,368.76,285.7779,364.76,289.7779,373.76,285.7779" style="stroke:#181818;stroke-width:1;"/></g><!--link source_scripts_install_web_service_sh to tool_mkdir--><g class="link" data-entity-1="ent0005" data-entity-2="ent0011" data-link-type="dependency" data-source-line="35" id="lnk30"><path d="M236.82,298.0379 C300.46,298.0379 369.06,298.0379 369.06,298.0379 C369.06,298.0379 369.06,318.3379 369.06,339.0879" fill="none" id="source_scripts_install_web_service_sh-to-tool_mkdir" style="stroke:#181818;stroke-width:1;"/><polygon fill="#181818" points="369.06,345.0879,373.06,336.0879,369.06,340.0879,365.06,336.0879,369.06,345.0879" style="stroke:#181818;stroke-width:1;"/></g><!--link source_scripts_install_web_service_sh to tool_systemctl--><g class="link" data-entity-1="ent0005" data-entity-2="ent0016" data-link-type="dependency" data-source-line="36" id="lnk31"><path d="M237.03,273.5079 C296.65,273.5079 359.06,273.5079 359.06,273.5079 C359.06,273.5079 359.06,253.2079 359.06,232.4579" fill="none" id="source_scripts_install_web_service_sh-to-tool_systemctl" style="stroke:#181818;stroke-width:1;"/><polygon fill="#181818" points="359.06,226.4579,355.06,235.4579,359.06,231.4579,363.06,235.4579,359.06,226.4579" style="stroke:#181818;stroke-width:1;"/></g><?plantuml-src bLLDZvim4BtpAwpicQJxeVRMopQfUcWlwN4bop43MFXBdg4H_xu6De389Wl7yNjltcZi6PCY3Gm1KJcRIcSfECt-EgULBTWlIr04GH73H4DEZ1mBgYY9PIg0R844AsMz2C8mB4Ncpgqm5nfXWcIGYrhJ8UR_8momtyuwz49EET8PxonOEb8JQshJ2rleAIKM1THuO2vGwPA1mZRRGb5PdtPd5wfSkpFkfDesHh_Phz6S8X6oMBpJk6426RewIE2zY0yYBXMF8lQm_t9uEkpl6o3809IY5BPtUbdZrAjvgxvbYJ8eJxXJ5abepNseBN1I1i8MopVxTCVlNSi_q78ibxYTuHIB3F-KXCxjUONRH3jrazhL6Tk8xjt46of1LgwcBbERaxyZ_8AmXyF-yFpwRQv4eDgdlecFm5whEvJtw3p3IGjPZP8kd7Eac9GKWojSErcrDpbXNOxcN5F5GHbvNJZdUEL7HWoky01nCerHaxBY6U_FhjWD0KwPNJndXJhFHquRpHdO886Hf4VQS3HmFvcZDFt-ySMk5axlTB6ukzt5xDZvvTokgOlfRN-JfPjWVTC-pR2eUpUpt6lCRT7mG9DbAsbG3hEqLZWypsJPMXeT1QsLT8EyLZGMQ1t1PQpYV_ap25yUQsD4Q99ZxAMDM_RbWhBu9uR6EsK9jycFonP-V6HKgf2byM-afb_AsmHinjhi_m40?></g></svg>
